<?xml version="1.0" standalone="no"?>
<!DOCTYPE svg PUBLIC "-//W3C//DTD SVG 20010904//EN"
 "http://www.w3.org/TR/2001/REC-SVG-20010904/DTD/svg10.dtd">
<svg version="1.0" xmlns="http://www.w3.org/2000/svg"
 width="394.000000pt" height="394.000000pt" viewBox="0 0 394.000000 394.000000"
 preserveAspectRatio="xMidYMid meet">

<g transform="translate(0.000000,394.000000) scale(0.100000,-0.100000)"
fill="#000000" stroke="none">
<path d="M2264 3904 c20 -20 47 -57 59 -83 19 -40 27 -46 57 -49 24 -2 47 -15
72 -40 44 -42 59 -36 35 13 -17 35 -52 58 -109 70 -18 3 -34 17 -44 38 -32 60
-57 87 -82 87 -24 0 -24 -1 12 -36z"/>
<path d="M1700 3829 c0 -5 5 -7 10 -4 6 3 10 8 10 11 0 2 -4 4 -10 4 -5 0 -10
-5 -10 -11z"/>
<path d="M1760 3830 c0 -5 5 -10 10 -10 6 0 10 5 10 10 0 6 -4 10 -10 10 -5 0
-10 -4 -10 -10z"/>
<path d="M1980 3811 c0 -5 5 -13 10 -16 6 -3 10 -2 10 4 0 5 -4 13 -10 16 -5
3 -10 2 -10 -4z"/>
<path d="M1910 3770 c0 -5 5 -10 10 -10 6 0 10 5 10 10 0 6 -4 10 -10 10 -5 0
-10 -4 -10 -10z"/>
<path d="M1165 3720 c-8 -13 14 -42 26 -34 5 3 9 14 9 25 0 20 -24 26 -35 9z"/>
<path d="M2590 3700 c0 -5 5 -10 10 -10 6 0 10 5 10 10 0 6 -4 10 -10 10 -5 0
-10 -4 -10 -10z"/>
<path d="M3296 3691 c-4 -7 -5 -15 -2 -18 9 -9 19 4 14 18 -4 11 -6 11 -12 0z"/>
<path d="M2340 3660 c0 -5 5 -10 10 -10 6 0 10 5 10 10 0 6 -4 10 -10 10 -5 0
-10 -4 -10 -10z"/>
<path d="M2520 3660 c0 -5 9 -14 21 -20 19 -11 20 -10 9 9 -11 22 -30 29 -30
11z"/>
<path d="M1450 3640 c0 -5 5 -10 10 -10 6 0 10 5 10 10 0 6 -4 10 -10 10 -5 0
-10 -4 -10 -10z"/>
<path d="M2626 3631 c-4 -5 -2 -12 3 -15 5 -4 12 -2 15 3 4 5 2 12 -3 15 -5 4
-12 2 -15 -3z"/>
<path d="M3231 3626 c-9 -10 -8 -16 4 -26 13 -11 18 -10 30 6 8 10 15 22 15
27 0 12 -37 8 -49 -7z"/>
<path d="M2992 3588 c6 -18 28 -21 28 -4 0 9 -7 16 -16 16 -9 0 -14 -5 -12
-12z"/>
<path d="M3323 3593 c-15 -5 -18 -33 -4 -33 13 0 33 28 24 33 -4 2 -14 2 -20
0z"/>
<path d="M2587 3584 c-8 -8 1 -24 14 -24 5 0 9 7 9 15 0 15 -12 20 -23 9z"/>
<path d="M1123 3564 c-8 -21 8 -34 34 -28 19 5 20 9 10 25 -14 23 -35 25 -44
3z"/>
<path d="M1930 3569 c-137 -8 -130 -7 -130 -19 0 -5 17 -10 38 -11 33 -1 34
-2 12 -9 -17 -6 -2 -8 53 -9 55 -1 77 3 77 12 0 9 2 9 8 0 4 -7 49 -15 110
-19 92 -6 102 -5 102 10 0 14 5 12 25 -8 14 -14 38 -28 53 -32 248 -53 509
-171 699 -314 261 -198 439 -444 537 -745 57 -176 80 -299 81 -432 0 -46 3
-83 7 -83 17 0 -16 -332 -41 -418 -8 -27 -7 -33 4 -29 11 5 25 -11 25 -29 0
-7 -25 0 -31 9 -3 4 -25 -41 -48 -100 -56 -142 -146 -314 -215 -411 -130 -185
-350 -375 -546 -472 -91 -46 -231 -102 -238 -95 -5 5 5 10 132 60 212 83 418
250 589 478 153 203 216 324 273 521 19 66 38 123 42 126 4 3 8 19 8 35 1 17
6 73 11 125 6 52 8 154 5 225 -3 72 -5 158 -6 193 0 34 -3 62 -7 62 -3 0 -19
50 -34 112 -66 275 -196 509 -388 700 -196 194 -496 368 -763 441 -123 34
-323 51 -439 38 -49 -6 -96 -11 -102 -11 -7 0 -13 -4 -13 -10 0 -5 7 -7 15 -4
8 4 15 1 15 -4 0 -6 -8 -13 -17 -15 -10 -3 61 -4 157 -2 181 4 254 -4 385 -45
391 -119 746 -379 928 -680 66 -109 164 -340 150 -354 -4 -3 -19 -6 -34 -6
-22 0 -30 7 -43 41 -9 23 -29 58 -43 78 -15 20 -29 38 -30 40 -2 3 -9 -1 -15
-7 -9 -9 -9 -15 0 -24 17 -17 15 -28 -4 -28 -8 0 -12 -4 -9 -10 3 -5 14 -10
24 -10 10 0 23 -12 30 -27 11 -23 10 -29 -3 -39 -25 -18 -19 -24 22 -24 24 0
32 -3 23 -9 -18 -12 -5 -71 17 -71 8 0 24 -8 35 -17 18 -16 20 -16 14 -2 -4
13 -1 16 14 12 10 -3 19 -1 19 5 0 6 -17 13 -37 17 -31 5 -38 10 -38 29 0 20
3 22 22 15 13 -5 29 -6 37 -3 15 6 20 -13 51 -175 21 -110 21 -394 0 -517 -25
-143 -74 -296 -131 -414 -63 -130 -241 -366 -365 -485 -123 -117 -362 -265
-403 -249 -8 3 -23 -3 -34 -14 -22 -22 -213 -71 -376 -97 -113 -18 -340 -21
-448 -5 -78 12 -247 56 -263 70 -5 4 -26 12 -45 17 -25 7 -36 16 -38 31 -2 12
-8 20 -13 16 -5 -3 -6 -10 -3 -16 11 -17 -34 0 -128 50 -49 25 -88 49 -88 54
0 4 -7 8 -15 8 -9 0 -18 7 -21 15 -4 8 -10 13 -14 10 -5 -3 -11 -1 -15 5 -3 5
0 10 8 10 8 0 20 6 26 14 11 13 65 10 56 -4 -6 -9 46 -34 65 -31 18 3 16 1 25
31 7 22 6 23 -8 11 -14 -11 -21 -10 -45 8 -16 11 -32 18 -36 14 -3 -3 -6 1 -6
9 0 9 -14 21 -31 28 -17 8 -40 23 -50 34 -16 16 -19 17 -19 4 0 -9 -6 -18 -12
-21 -10 -3 -9 -9 4 -23 12 -14 14 -24 7 -37 -10 -17 -39 -24 -39 -9 0 4 -15
16 -32 27 -18 10 -78 64 -133 120 -150 151 -247 304 -338 535 -127 320 -140
587 -46 954 56 221 220 518 372 674 144 149 222 209 362 280 119 60 157 74
365 137 37 11 118 28 188 39 7 1 12 5 12 9 0 4 0 12 0 17 0 15 -48 12 -167
-11 -212 -41 -456 -144 -602 -255 -143 -110 -272 -250 -366 -399 -65 -104
-179 -334 -195 -397 -7 -23 -15 -47 -18 -53 -4 -5 -8 -21 -10 -35 -1 -14 -14
-82 -27 -153 -20 -99 -25 -159 -25 -270 1 -221 28 -365 106 -553 26 -65 40
-111 37 -125 -5 -16 1 -28 19 -43 14 -12 45 -55 68 -96 24 -41 62 -100 85
-131 29 -38 40 -61 34 -70 -10 -17 -14 -13 -105 125 -108 160 -199 378 -241
576 -26 124 -26 507 1 635 83 405 294 751 597 978 86 64 273 177 294 177 7 0
17 4 20 10 8 14 88 47 180 76 44 14 89 29 100 34 11 4 58 16 105 25 120 23
119 23 93 44 -18 15 -31 17 -70 10 -100 -16 -233 -50 -299 -75 -38 -15 -84
-27 -101 -27 -19 0 -33 -6 -33 -13 0 -7 -51 -41 -112 -75 -217 -122 -399 -278
-527 -453 -86 -117 -122 -176 -157 -256 -15 -36 -31 -67 -34 -70 -8 -8 -88
-247 -104 -315 -35 -141 -48 -475 -25 -642 19 -147 91 -368 167 -519 45 -88
141 -229 216 -316 182 -213 464 -393 772 -496 196 -66 267 -76 519 -77 249 0
305 8 510 76 258 86 451 199 628 368 26 25 47 40 47 33 0 -7 5 -10 10 -7 6 4
9 12 8 19 -2 6 23 41 55 76 31 36 94 120 140 186 145 214 248 354 257 349 11
-7 33 32 25 45 -3 5 17 37 45 70 46 57 64 96 39 88 -12 -4 -75 -91 -199 -278
-81 -122 -114 -162 -75 -92 14 27 47 102 78 177 31 76 77 260 88 352 14 116 4
485 -13 533 -3 8 -16 56 -28 105 -84 337 -253 614 -505 831 -91 78 -215 164
-293 203 -40 21 -43 24 -37 53 6 23 4 29 -6 26 -8 -3 -14 -11 -15 -19 0 -8 -2
-17 -2 -21 -1 -4 -41 12 -89 34 -106 49 -227 87 -388 121 -139 31 -188 34
-345 26z m12 -31 c-7 -7 -16 -7 -28 0 -14 8 -13 10 10 10 18 0 24 -4 18 -10z
m1472 -2498 c-6 -6 -10 -3 -10 10 0 13 4 16 10 10 7 -7 7 -13 0 -20z m-2592
-247 c133 -138 286 -250 473 -348 120 -62 108 -64 -23 -4 -162 75 -298 169
-444 307 -77 74 -96 102 -69 102 4 0 33 -26 63 -57z m618 -413 c8 -5 11 -10 5
-10 -5 0 -17 5 -25 10 -8 5 -10 10 -5 10 6 0 17 -5 25 -10z m163 -44 c247 -65
505 -59 832 19 27 7 28 6 15 -8 -17 -17 -149 -52 -255 -67 -209 -29 -561 7
-705 74 -45 21 -18 17 113 -18z"/>
<path d="M2905 3570 c3 -5 10 -10 16 -10 5 0 9 5 9 10 0 6 -7 10 -16 10 -8 0
-12 -4 -9 -10z"/>
<path d="M1038 3559 c-23 -13 -23 -36 1 -48 22 -12 45 8 39 35 -4 22 -18 26
-40 13z"/>
<path d="M650 3535 c0 -21 17 -45 32 -45 14 0 9 17 -12 41 -19 23 -19 23 -20
4z"/>
<path d="M3118 3543 c7 -3 16 -2 19 1 4 3 -2 6 -13 5 -11 0 -14 -3 -6 -6z"/>
<path d="M2947 3526 c-9 -22 19 -42 37 -26 19 15 10 40 -14 40 -10 0 -20 -6
-23 -14z"/>
<path d="M1360 3490 c0 -5 5 -10 10 -10 6 0 10 5 10 10 0 6 -4 10 -10 10 -5 0
-10 -4 -10 -10z"/>
<path d="M1060 3460 c0 -5 5 -10 10 -10 6 0 10 5 10 10 0 6 -4 10 -10 10 -5 0
-10 -4 -10 -10z"/>
<path d="M2970 3460 c0 -5 5 -10 10 -10 6 0 10 5 10 10 0 6 -4 10 -10 10 -5 0
-10 -4 -10 -10z"/>
<path d="M3530 3460 c0 -5 5 -10 10 -10 6 0 10 5 10 10 0 6 -4 10 -10 10 -5 0
-10 -4 -10 -10z"/>
<path d="M1190 3420 c0 -5 5 -10 10 -10 6 0 10 5 10 10 0 6 -4 10 -10 10 -5 0
-10 -4 -10 -10z"/>
<path d="M1992 3408 c-8 -20 -19 -28 -35 -28 -14 0 -36 -9 -50 -20 -31 -25
-37 -25 -37 -2 0 26 -32 52 -64 52 -31 0 -76 -40 -76 -67 0 -14 -2 -15 -9 -4
-5 7 -6 23 -3 35 5 20 5 20 -12 4 -9 -10 -14 -22 -11 -28 3 -5 1 -10 -4 -10
-6 0 -11 -7 -11 -15 0 -27 -17 -16 -28 18 -8 26 -10 28 -11 9 -2 -35 -19 -62
-36 -56 -9 4 -15 0 -15 -9 0 -19 40 -11 57 12 8 10 12 12 13 4 0 -19 30 -3 30
16 0 13 2 13 9 2 5 -7 13 -11 19 -7 5 3 21 -3 35 -14 31 -25 44 -25 85 0 39
24 52 25 52 5 0 -8 9 -19 19 -25 25 -13 61 -13 61 0 0 6 -11 10 -24 10 -24 0
-43 16 -32 27 3 3 21 7 41 10 35 3 35 3 35 -34 0 -28 3 -34 10 -23 5 8 10 25
10 38 0 19 5 22 43 23 51 1 77 5 85 15 4 4 -23 4 -60 1 -56 -5 -68 -4 -68 8 0
9 10 15 25 15 14 0 25 5 25 10 0 6 -11 10 -24 10 -18 0 -26 6 -29 23 -3 21 -4
21 -15 -5z m-2 -53 c0 -11 -11 -15 -37 -15 -36 1 -37 2 -19 15 26 19 56 19 56
0z"/>
<path d="M2720 3420 c0 -5 5 -10 10 -10 6 0 10 5 10 10 0 6 -4 10 -10 10 -5 0
-10 -4 -10 -10z"/>
<path d="M2900 3420 c0 -5 5 -10 10 -10 6 0 10 5 10 10 0 6 -4 10 -10 10 -5 0
-10 -4 -10 -10z"/>
<path d="M2275 3380 c-3 -5 1 -10 9 -10 22 0 20 -27 -3 -40 -27 -14 -34 -13
-27 5 3 8 3 15 1 15 -6 0 -45 -62 -45 -70 0 -3 16 -7 37 -8 20 -2 40 -5 45 -8
10 -7 38 14 38 28 0 6 -7 8 -15 4 -21 -8 -19 4 6 31 l22 22 -24 20 c-27 23
-35 25 -44 11z"/>
<path d="M2226 3359 c-14 -11 -26 -26 -26 -32 0 -6 7 -1 16 11 8 12 22 22 30
22 8 0 14 5 14 10 0 14 -4 13 -34 -11z"/>
<path d="M756 3354 c-10 -25 -7 -59 6 -72 18 -18 46 -14 53 7 7 24 -1 42 -29
63 -21 16 -25 16 -30 2z"/>
<path d="M1520 3313 c-4 -48 -4 -51 -14 -60 -5 -5 -6 -3 -2 5 9 15 1 15 -26 1
-15 -8 -19 -8 -13 1 9 14 -2 60 -15 60 -6 0 -10 -20 -10 -44 0 -29 -4 -44 -12
-43 -33 1 -49 -4 -43 -14 4 -6 0 -9 -11 -7 -15 2 -20 -4 -22 -36 -2 -21 2 -44
9 -50 9 -8 10 -6 6 12 -4 18 2 28 31 47 38 26 52 25 52 -6 0 -10 4 -19 8 -19
4 0 6 17 4 37 -4 33 -3 36 10 25 12 -10 18 -9 28 3 7 8 18 15 25 15 8 0 11 8
8 20 -3 11 0 27 7 35 8 9 8 15 2 15 -6 0 -13 8 -15 18 -3 9 -6 3 -7 -15z"/>
<path d="M2446 3294 c-12 -17 -25 -24 -37 -21 -19 5 -46 -17 -31 -27 10 -6 60
-17 82 -18 8 0 22 -7 32 -15 14 -13 17 -12 23 6 3 12 3 26 0 32 -4 6 3 21 16
35 17 18 19 24 7 24 -8 0 -25 -13 -38 -30 -38 -49 -67 -36 -34 15 22 33 4 32
-20 -1z"/>
<path d="M3170 3301 c0 -6 5 -13 10 -16 6 -3 10 1 10 9 0 9 -4 16 -10 16 -5 0
-10 -4 -10 -9z"/>
<path d="M1868 3230 c-189 -22 -377 -78 -530 -157 -80 -41 -89 -43 -104 -29
-20 20 -33 20 -56 -1 -17 -15 -18 -15 -18 1 0 9 5 14 10 11 6 -3 10 -1 10 4 0
6 7 11 15 11 9 0 15 9 14 23 0 12 -3 16 -6 8 -4 -10 -7 -10 -13 -1 -5 9 -11 8
-21 -2 -8 -8 -18 -15 -24 -16 -21 -3 -15 -42 9 -69 16 -17 26 -22 26 -14 0 8
3 12 6 8 4 -3 -45 -57 -108 -119 -64 -62 -141 -148 -173 -191 -39 -53 -63 -76
-73 -72 -8 3 -21 -3 -28 -12 -11 -14 -13 -15 -13 -3 0 8 6 24 14 34 17 23 19
36 5 36 -5 0 -16 -12 -24 -27 l-15 -28 -1 27 c0 59 -57 75 -93 26 -17 -22 -19
-33 -11 -54 13 -38 39 -52 64 -36 24 15 25 9 4 -22 -9 -15 -11 -26 -5 -30 6
-4 17 7 26 24 17 32 40 32 30 -1 -8 -24 3 -25 22 -1 7 9 -7 -23 -32 -73 -25
-49 -52 -93 -60 -98 -8 -4 -15 -21 -15 -37 0 -16 -4 -40 -10 -54 -10 -27 -29
-27 -63 2 -9 8 -20 12 -24 9 -3 -4 -12 -2 -20 4 -17 15 -63 -30 -52 -52 4 -8
12 -26 18 -41 6 -16 16 -28 22 -28 8 0 8 4 -1 15 -8 9 -9 15 -2 15 6 0 14 -4
17 -10 12 -20 31 -9 43 25 9 24 17 32 29 28 20 -8 10 -74 -16 -112 -16 -23
-18 -46 -16 -206 3 -231 19 -323 88 -505 30 -79 97 -221 131 -275 23 -38 25
-55 5 -55 -5 0 -9 7 -9 16 0 9 -6 14 -13 11 -24 -9 -42 11 -39 42 5 48 -13 71
-57 71 -64 0 -92 -56 -55 -108 12 -17 24 -23 48 -21 44 4 76 -9 69 -27 -4 -10
3 -14 26 -14 17 0 31 4 31 9 0 17 42 3 57 -18 66 -94 208 -230 324 -308 52
-36 176 -99 264 -136 180 -74 402 -105 613 -84 45 5 82 5 81 0 -1 -4 -1 -17 0
-28 1 -15 3 -17 10 -6 5 7 6 22 4 32 -4 14 0 19 14 19 28 0 203 47 286 77 98
35 192 83 252 129 123 95 318 314 387 434 30 53 97 217 126 310 58 182 75 401
48 587 -43 289 -147 505 -341 704 -41 43 -63 73 -59 82 3 8 1 18 -5 22 -18 11
-13 23 22 46 17 13 26 16 20 8 -10 -13 -7 -21 21 -48 30 -29 36 -32 57 -21 21
12 21 14 6 25 -21 15 -22 31 -2 39 8 3 15 11 15 17 0 7 -9 5 -26 -6 -20 -13
-28 -14 -39 -5 -12 10 -11 15 8 30 38 31 10 34 -35 4 -54 -37 -88 -71 -79 -80
13 -14 -35 15 -54 33 -33 30 -174 117 -260 160 -96 48 -206 87 -306 108 -86
18 -294 26 -391 15z m71 -36 c-15 -18 -5 -18 30 0 l28 15 2 -80 1 -79 -42 -1
c-88 -2 -288 -33 -321 -51 -10 -5 -20 -8 -22 -6 -3 2 12 13 33 23 115 61 262
148 262 157 0 5 -24 -4 -52 -20 -29 -16 -132 -73 -228 -127 -96 -54 -226 -127
-288 -162 -62 -35 -117 -61 -122 -58 -6 4 -8 10 -6 14 9 13 -33 51 -56 51 -12
0 -30 -7 -40 -17 -24 -21 -24 -79 -1 -92 10 -5 16 -11 13 -14 -13 -12 -255
-145 -258 -142 -15 15 292 355 321 355 4 0 33 18 65 39 138 94 337 165 552
197 52 8 100 16 105 18 6 2 16 1 23 -2 9 -3 10 -8 1 -18z m276 0 c208 -31 477
-159 619 -293 127 -119 276 -284 276 -304 0 -4 -54 26 -119 66 -77 47 -115 75
-108 80 8 6 5 7 -6 3 -17 -6 -91 33 -272 144 -33 20 -80 48 -105 62 -102 58
-426 250 -433 257 -8 8 13 6 148 -15z m-61 -63 c37 -22 69 -41 71 -41 5 0 159
-91 165 -98 3 -3 -4 -2 -15 3 -53 21 -179 45 -262 51 l-93 7 0 79 0 80 33 -20
c17 -11 63 -38 101 -61z m-154 -216 c0 -84 -3 -117 -12 -120 -7 -2 -31 -9 -53
-14 -22 -6 -55 -24 -73 -41 -18 -16 -39 -30 -47 -30 -7 0 -15 -15 -18 -32 -19
-107 -22 -110 -102 -103 -22 2 -61 4 -86 4 l-46 1 -7 85 c-4 52 -2 93 4 105
14 25 -4 70 -31 77 -11 3 -27 19 -35 36 -15 28 -15 31 2 41 48 27 220 81 295
91 41 6 48 4 53 -13 4 -11 13 -23 21 -26 17 -6 45 19 45 40 0 10 13 14 45 14
l45 0 0 -115z m188 105 c91 -12 189 -39 273 -78 l56 -25 -40 -86 c-27 -57 -45
-115 -56 -178 l-15 -93 -83 0 -83 0 0 33 c-1 94 -108 197 -206 197 -21 0 -24
5 -24 35 0 22 6 38 15 41 20 8 19 44 -1 44 -13 0 -15 7 -10 31 3 17 6 44 6 60
0 27 2 29 43 29 23 0 79 -5 125 -10z m-697 -180 c16 -43 17 -51 5 -41 -9 7
-13 17 -10 22 6 11 -7 16 -64 22 -40 5 -43 3 -39 -14 3 -10 1 -19 -4 -19 -5 0
-9 -4 -9 -9 0 -5 8 -8 18 -7 9 0 16 -5 15 -11 -2 -7 2 -13 7 -13 5 0 10 -7 10
-16 0 -8 4 -13 9 -10 5 4 7 -3 4 -15 -5 -19 -3 -20 44 -13 28 3 53 2 56 -2 2
-5 8 -37 12 -71 l7 -63 -75 0 -74 0 -7 60 c-4 32 -18 92 -31 131 -14 40 -24
73 -22 74 17 14 50 24 60 19 6 -4 9 -3 4 1 -9 11 45 47 56 36 4 -4 17 -32 28
-61z m1110 29 l48 -30 -30 -62 c-16 -34 -29 -68 -29 -74 0 -15 -9 -16 -29 -4
-9 6 -11 18 -7 34 4 19 11 24 26 20 23 -6 28 15 5 23 -21 8 -19 61 3 73 14 9
14 10 2 11 -21 0 -40 -20 -40 -43 0 -10 -4 -16 -9 -13 -4 3 -14 -14 -21 -37
-6 -23 -16 -47 -21 -53 -12 -15 7 -30 47 -38 23 -5 31 -12 28 -24 -1 -9 -6
-34 -9 -55 -6 -36 -8 -38 -33 -32 -15 3 -31 11 -37 16 -7 7 -5 8 6 4 10 -4 19
3 27 20 15 32 10 42 -20 40 -16 -1 -22 -7 -20 -19 3 -14 -1 -16 -17 -11 -22 7
-30 -10 -8 -18 6 -3 3 -6 -8 -7 -18 -1 -18 -2 5 -15 l25 -14 -27 -1 c-33 0
-34 7 -14 113 15 79 79 227 98 227 6 0 33 -14 59 -31z m-1271 -58 c0 -11 4
-22 9 -26 12 -7 41 -133 41 -174 l0 -31 -156 0 -155 0 21 27 c56 72 213 223
231 223 5 0 9 -9 9 -19z m103 2 c-7 -2 -19 -2 -25 0 -7 3 -2 5 12 5 14 0 19
-2 13 -5z m1395 -149 c45 -48 81 -88 80 -89 -7 -6 -308 -11 -317 -5 -19 11 13
140 54 219 l16 32 42 -35 c23 -19 79 -74 125 -122z m-102 137 c5 -6 94 -60
198 -120 l190 -111 -72 0 c-41 0 -74 5 -78 11 -4 8 -9 7 -15 -2 -8 -11 -14 -9
-30 11 -40 48 -115 125 -168 173 -29 26 -49 47 -44 47 5 0 13 -4 19 -9z
m-1540 -20 c-6 -9 -46 -22 -46 -15 0 3 10 9 23 14 29 11 29 11 23 1z m923 -40
c138 -71 141 -267 5 -347 -116 -68 -246 -31 -295 84 -23 54 -24 84 -3 146 42
122 177 176 293 117z m-955 -33 c-27 -29 -63 -70 -80 -91 l-31 -38 -79 3 -79
3 55 32 c105 60 135 77 195 110 33 18 62 33 64 33 2 0 -18 -24 -45 -52z m-410
-41 c13 -21 -2 -50 -29 -55 -33 -7 -46 36 -19 63 19 18 33 16 48 -8z m265
-141 l-20 -34 -50 30 c-27 17 -49 33 -49 34 0 2 31 4 70 4 l69 0 -20 -34z
m260 25 l114 -1 -6 -57 c-5 -53 -34 -147 -56 -182 -8 -12 -30 -2 -117 50 -102
61 -109 67 -110 98 -2 38 -19 53 -51 48 -26 -5 -28 1 -10 24 14 19 36 25 86
22 20 -1 87 -2 150 -2z m176 -36 c1 -18 -6 -30 -20 -35 -18 -7 -18 -9 -3 -15
14 -5 15 -11 8 -25 -13 -25 -13 -50 1 -50 7 0 17 -6 23 -14 7 -9 18 -11 31 -7
19 8 19 8 -3 20 -32 17 -30 45 3 37 18 -5 25 -2 25 9 0 8 -6 15 -13 15 -10 0
-14 14 -13 48 1 44 3 47 29 50 l27 3 -5 -63 c-9 -117 -76 -293 -102 -267 -6 6
-9 18 -5 27 4 11 1 14 -10 9 -21 -8 -30 2 -15 18 9 9 16 10 25 3 7 -6 16 -8
20 -4 4 4 -1 12 -11 17 -13 8 -15 14 -7 30 9 15 7 21 -5 25 -19 8 -22 5 -27
-21 -1 -11 -5 -22 -8 -25 -3 -3 -13 -22 -22 -42 -17 -36 -17 -38 2 -48 25 -13
28 -13 32 6 3 14 5 14 21 -3 16 -19 16 -21 -4 -44 -12 -13 -29 -33 -38 -44
-24 -29 -142 -130 -169 -144 -13 -7 -26 -10 -30 -7 -3 3 -1 6 5 6 15 0 4 47
-15 62 -8 7 -17 11 -20 8 -3 -3 -10 3 -16 13 -9 16 -7 22 14 35 14 9 50 40 80
69 52 49 57 51 68 33 10 -17 8 -24 -16 -49 -81 -86 -81 -87 -64 -98 13 -8 24
-4 47 19 23 21 31 25 33 13 5 -21 15 -19 30 5 7 12 8 20 2 20 -5 0 -10 8 -10
18 1 15 2 15 15 -2 24 -32 31 -8 10 31 -11 20 -19 41 -18 45 2 4 -3 8 -11 8
-23 0 -29 20 -12 38 38 43 96 210 96 279 0 29 2 32 23 24 15 -6 22 -17 22 -36z
m334 -15 c7 -27 17 -52 22 -56 5 -3 9 -10 9 -16 0 -6 -6 -6 -15 2 -12 10 -19
10 -27 2 -17 -17 -38 -15 -38 4 0 8 -4 13 -10 9 -10 -6 7 -55 25 -67 18 -13
28 -8 15 7 -10 12 -10 15 4 15 9 0 16 6 16 13 0 9 3 8 9 -2 5 -7 14 -10 20 -6
7 4 24 -5 39 -20 30 -30 83 -55 118 -55 17 0 24 -6 24 -19 0 -15 -10 -19 -59
-24 -96 -10 -167 -44 -240 -114 l-64 -62 -49 27 c-53 30 -56 36 -31 64 15 16
15 21 3 28 -17 10 -40 -5 -40 -26 0 -15 -26 -19 -34 -6 -3 5 10 47 29 93 19
49 39 123 46 172 l12 87 102 0 101 0 13 -50z m1321 46 c0 -5 -113 -67 -115
-63 0 1 -9 14 -18 29 l-17 27 68 4 c37 2 70 4 75 5 4 1 7 0 7 -2z m-2138 -103
c-18 -38 -19 -38 -61 39 l-31 57 54 -31 54 -31 -16 -34z m1604 48 c10 -69 49
-176 86 -238 18 -30 68 -88 111 -128 42 -41 77 -76 77 -79 0 -9 -45 -7 -54 2
-4 4 -12 8 -17 8 -5 1 -11 2 -14 3 -3 0 -1 11 6 22 10 20 9 21 -14 15 -20 -5
-30 0 -45 19 -20 25 -42 33 -42 15 0 -5 -9 -10 -21 -10 -11 0 -18 -4 -15 -9 3
-5 -1 -11 -9 -14 -9 -4 -25 9 -45 35 -16 23 -30 45 -30 49 0 15 45 18 56 4 12
-16 34 -20 34 -7 0 19 -32 72 -40 67 -5 -3 -11 8 -15 25 -4 16 -8 30 -10 30
-15 0 -35 -14 -35 -25 0 -23 -29 -25 -41 -4 -23 44 -47 130 -54 192 -8 74 -8
74 77 74 l47 -1 7 -45z m384 17 c15 -26 17 -35 7 -44 -23 -21 -256 -154 -269
-154 -8 0 -19 -5 -25 -11 -9 -9 -15 -3 -26 22 -36 87 -62 192 -52 209 4 6 71
10 176 10 l169 0 20 -32z m-2124 -545 c-5 -313 -8 -597 -7 -633 l0 -65 -30 65
c-70 149 -126 340 -136 463 l-6 77 28 0 c67 0 74 103 8 113 -12 2 -25 6 -28 9
-7 7 5 58 14 56 25 -3 40 6 51 31 13 32 3 63 -26 79 -15 8 -14 16 6 82 14 46
28 74 39 77 27 7 45 42 30 59 -10 12 -6 28 21 85 19 38 36 69 38 69 3 0 2
-255 -2 -567z m1584 542 c0 -54 33 -181 61 -237 16 -31 29 -61 29 -65 0 -5
-36 -30 -80 -57 l-81 -49 -53 60 c-61 67 -153 119 -228 129 -38 5 -48 11 -48
25 0 13 7 19 22 19 37 0 124 50 155 88 17 20 36 54 43 75 l14 37 83 0 c82 0
83 0 83 -25z m663 -49 l-37 -67 -19 37 c-16 30 -17 39 -6 45 57 34 94 55 97
54 1 -1 -14 -32 -35 -69z m112 7 c55 -124 112 -339 92 -346 -7 -2 -4 -13 6
-27 22 -32 23 -241 2 -396 -15 -108 -76 -314 -116 -391 l-20 -38 3 627 c2 346
4 628 6 628 1 0 14 -26 27 -57z m-2291 -17 l35 -65 -36 -108 c-20 -59 -40
-117 -44 -128 -4 -11 -5 25 -4 80 2 55 4 142 4 193 1 50 3 92 5 92 2 0 20 -29
40 -64z m2244 -141 c-2 -113 -4 -205 -4 -205 -1 0 -7 24 -14 53 -6 28 -25 87
-41 130 l-29 78 27 47 c14 26 33 59 40 75 8 15 16 27 19 27 2 0 3 -92 2 -205z
m-2137 141 c-9 -11 -8 -18 4 -30 18 -17 55 -22 55 -6 0 5 8 6 18 3 25 -10 211
-123 217 -132 12 -21 -93 -134 -154 -166 l-29 -15 -52 93 c-28 50 -52 101 -53
112 -1 11 -14 32 -29 47 -16 15 -28 29 -28 32 0 13 43 76 52 76 7 0 6 -5 -1
-14z m2004 -35 l17 -40 -40 -73 c-22 -40 -60 -107 -84 -150 l-44 -76 -35 26
c-37 29 -86 79 -127 130 l-26 34 25 19 c13 10 49 32 80 49 31 16 89 50 130 75
41 24 77 45 80 45 3 0 14 -18 24 -39z m-2045 -91 c8 -16 41 -75 73 -131 32
-56 57 -103 55 -104 -8 -8 -156 -53 -195 -60 -38 -6 -43 -4 -43 12 1 47 76
313 89 313 3 0 13 -14 21 -30z m2135 -138 c8 -33 19 -86 23 -119 8 -58 8 -59
-17 -61 -41 -3 -142 18 -183 39 l-39 20 41 72 c22 40 57 102 78 140 l37 67 22
-49 c12 -28 29 -77 38 -109z m-2515 109 c0 -5 -7 -14 -15 -21 -16 -14 -18 -10
-9 14 6 17 24 22 24 7z m30 -1 c0 -5 -5 -10 -11 -10 -5 0 -7 5 -4 10 3 6 8 10
11 10 2 0 4 -4 4 -10z m-10 -30 c0 -5 -7 -10 -16 -10 -9 0 -12 -5 -8 -12 4 -7
3 -8 -5 -4 -9 6 -9 11 0 22 13 16 29 18 29 4z m1380 -16 c0 -23 32 -45 47 -33
7 7 13 6 18 -1 3 -5 15 -10 26 -10 10 0 19 -4 19 -9 0 -6 -12 -6 -28 -2 -16 5
-58 7 -95 6 -37 -1 -67 2 -67 6 0 9 19 13 48 12 7 -1 12 6 10 16 -2 11 -12 15
-33 13 -65 -8 -114 -52 -58 -52 25 -1 22 -4 -28 -30 -57 -29 -116 -92 -137
-145 -24 -60 -17 -199 12 -270 22 -52 96 -127 119 -121 26 6 47 -3 47 -22 0
-8 3 -13 6 -9 4 3 13 0 21 -8 9 -10 35 -15 74 -15 32 0 59 -4 59 -9 0 -6 -16
-8 -35 -7 -38 4 -45 -9 -17 -30 15 -12 12 -13 -25 -14 -37 0 -43 3 -43 21 0
15 5 19 15 15 8 -3 15 -2 15 2 0 4 -25 12 -56 18 -54 10 -55 10 -32 -8 13 -10
29 -18 36 -18 17 0 15 -20 -3 -20 -8 0 -15 5 -15 10 0 6 -7 10 -15 10 -47 0
-216 135 -200 160 10 17 25 11 25 -10 0 -11 7 -20 15 -20 8 0 14 -3 13 -7 -2
-5 2 -10 7 -12 17 -8 18 32 1 41 -9 5 -16 16 -16 23 0 8 -9 16 -20 16 -45 3
-56 11 -44 30 5 9 11 7 20 -6 18 -25 26 -15 18 24 -6 26 -10 30 -27 25 -20 -6
-21 -6 -3 12 13 13 15 19 6 22 -7 3 -16 -2 -21 -9 -13 -22 -19 -6 -23 60 -2
44 0 59 8 51 6 -6 11 -25 11 -42 0 -18 6 -33 14 -36 11 -4 13 2 8 25 -3 17 -2
34 4 40 6 6 0 14 -17 23 -22 12 -25 18 -19 49 25 135 177 257 323 260 23 1 32
-3 32 -15z m43 0 c-3 -9 -9 -12 -12 -7 -3 4 -10 11 -15 16 -5 4 0 7 12 7 15 0
20 -4 15 -16z m117 -15 c25 -12 40 -23 33 -26 -6 -2 -23 3 -36 12 -18 12 -27
13 -32 4 -5 -6 -10 -7 -14 -2 -3 5 -15 15 -26 21 -38 22 26 14 75 -9z m400 1
c0 -5 7 -7 15 -4 23 9 18 -4 -6 -17 -17 -8 -23 -8 -30 2 -4 7 -5 17 -3 21 7
11 24 10 24 -2z m-1061 -96 c-9 -11 -15 -11 -25 -3 -23 19 -17 -12 8 -38 25
-26 43 -30 34 -7 -3 8 1 25 9 38 8 12 12 26 8 30 -5 4 18 -7 50 -26 47 -27 56
-37 51 -53 -38 -125 -40 -220 -4 -325 10 -30 16 -58 14 -62 -9 -14 -22 -8 -27
12 -6 22 -92 80 -118 80 -22 0 -37 59 -19 70 9 6 7 11 -9 20 -15 8 -19 15 -13
23 8 10 20 67 24 115 1 6 4 12 8 12 11 0 4 44 -7 47 -7 3 -9 -4 -6 -17 5 -20
4 -21 -15 -9 -12 7 -25 10 -29 5 -4 -4 -1 -12 8 -16 14 -8 15 -16 4 -57 -15
-57 -13 -86 4 -107 12 -14 11 -16 -4 -9 -14 5 -17 3 -12 -10 4 -11 2 -14 -9
-10 -7 3 -14 2 -14 -2 0 -10 27 -35 39 -35 5 0 12 -3 14 -7 3 -5 -18 -9 -47
-11 -28 -1 -62 -3 -75 -5 -20 -2 -31 10 -65 68 -62 104 -62 98 4 144 60 42
190 175 190 195 1 6 10 0 20 -13 16 -18 18 -27 9 -37z m693 38 c18 -18 38 -15
31 4 -4 11 -2 15 7 12 24 -8 22 -27 -2 -38 -20 -9 -32 -7 -68 14 l-45 26 33
-3 c18 -2 38 -9 44 -15z m374 -34 c27 -44 132 -158 146 -158 4 0 16 -7 25 -15
10 -8 26 -21 36 -28 18 -12 16 -18 -29 -95 -35 -60 -53 -81 -64 -77 -8 4 -27
9 -42 12 -30 6 -46 32 -26 44 8 5 9 11 1 21 -6 7 -14 28 -18 47 -6 29 -5 33 9
28 22 -9 20 15 -2 30 -11 6 -23 8 -28 5 -14 -10 -15 -52 -1 -53 7 -1 -1 -5
-18 -9 -27 -7 -28 -9 -9 -15 15 -5 20 -14 18 -38 -3 -55 -4 -57 -22 -57 -29 0
-120 -49 -142 -77 -23 -29 -46 -23 -29 8 17 32 36 151 33 205 -1 27 -11 75
-21 106 l-19 56 62 36 c35 20 68 36 74 36 15 0 12 -20 -5 -26 -26 -10 -16 -21
14 -16 35 5 46 25 26 46 -12 11 -11 26 2 26 1 0 15 -19 29 -42z m-558 -113
c-2 -69 -4 -125 -6 -125 -4 0 -222 132 -222 134 0 6 52 71 55 69 3 -1 28 9 57
22 29 14 68 25 86 25 l33 0 -3 -125z m130 94 c67 -33 111 -80 89 -96 -6 -5
-41 -27 -77 -48 -36 -21 -80 -47 -99 -58 l-33 -20 5 89 c4 49 6 106 7 127 0
32 3 37 23 37 13 0 51 -14 85 -31z m147 20 c11 -16 1 -19 -13 -3 -7 8 -8 14
-3 14 5 0 13 -5 16 -11z m-40 -20 c11 -17 -1 -21 -15 -4 -8 9 -8 15 -2 15 6 0
14 -5 17 -11z m70 -19 c3 -5 1 -10 -4 -10 -6 0 -11 5 -11 10 0 6 2 10 4 10 3
0 8 -4 11 -10z m-5 -32 c11 2 23 -6 30 -17 6 -12 7 -21 1 -21 -5 0 -11 6 -14
13 -2 6 -8 9 -12 4 -5 -4 -2 -22 7 -40 8 -17 13 -47 11 -64 -3 -20 0 -33 7
-33 7 0 9 -12 4 -35 -5 -28 -3 -35 10 -35 9 0 16 -4 16 -9 0 -5 -7 -8 -16 -7
-10 0 -21 -14 -29 -38 -15 -43 -11 -61 11 -52 15 6 10 -13 -17 -57 -11 -20
-19 -25 -24 -17 -5 8 -1 16 9 22 17 10 21 33 7 42 -5 3 -17 -6 -26 -21 -14
-20 -15 -30 -7 -44 12 -19 6 -49 -10 -49 -5 0 -7 9 -3 19 10 33 -13 33 -46 1
-18 -16 -36 -30 -42 -30 -5 0 -4 -7 3 -16 11 -12 11 -18 -2 -30 -9 -9 -24 -14
-34 -11 -17 4 -17 6 4 12 12 4 22 11 22 14 0 18 -14 19 -46 3 -25 -12 -33 -20
-28 -34 3 -10 1 -18 -5 -18 -10 0 -14 22 -10 48 1 4 24 15 51 26 72 26 140 96
168 171 31 85 26 199 -12 274 -31 58 -36 77 -12 46 8 -11 23 -19 34 -17z m380
17 c10 -12 9 -18 -5 -31 -15 -15 -17 -15 -30 2 -9 13 -10 23 -3 31 14 17 23
16 38 -2z m-1560 -35 c6 -11 8 -24 5 -29 -9 -15 5 -39 26 -44 43 -11 9 -40
-83 -71 -51 -17 -150 -36 -190 -36 -28 0 -28 0 -28 65 l0 64 38 6 c20 4 44 9
53 11 12 3 16 -4 17 -32 2 -48 -14 -77 -39 -71 -10 3 -19 1 -19 -4 0 -12 47
-11 55 1 4 6 11 7 17 4 6 -4 13 -2 17 4 4 7 16 13 26 15 11 1 26 6 33 10 6 5
16 6 21 3 17 -11 20 23 5 53 -17 35 -39 42 -31 10 5 -20 -1 -25 -37 -31 -14
-2 -19 4 -22 25 -2 20 2 27 14 27 9 0 35 9 57 19 51 25 52 25 65 1z m1619 -17
c51 -47 51 -47 78 -22 l25 24 -22 -42 c-12 -24 -24 -43 -27 -43 -10 0 -92 52
-103 65 -9 10 -7 16 7 24 23 13 20 14 42 -6z m151 -4 c0 -5 4 -8 8 -5 5 3 31
-3 58 -13 48 -18 147 -37 172 -32 8 1 12 -17 12 -64 l0 -65 -54 0 c-30 0 -57
3 -59 8 -3 4 7 18 22 32 14 14 23 21 19 16 -11 -14 -10 -46 1 -46 5 0 21 14
36 32 26 30 26 32 7 42 -10 6 -17 17 -15 24 3 6 0 12 -5 12 -6 0 -14 -9 -17
-20 -7 -21 -25 -28 -25 -9 0 5 -5 7 -10 4 -6 -4 -23 0 -39 8 -27 14 -30 13
-35 -6 -3 -12 2 -29 11 -39 13 -14 14 -21 5 -30 -9 -9 -25 -8 -67 6 -30 9 -55
18 -55 20 0 2 8 10 17 17 11 10 14 10 9 2 -4 -7 -5 -13 -2 -13 8 0 46 39 47
48 0 4 7 6 15 6 8 -1 14 4 14 12 0 15 -14 17 -45 5 -25 -10 -58 19 -49 42 7
19 24 23 24 6z m-943 -124 l34 -22 -68 -40 c-37 -22 -87 -50 -109 -61 l-42
-21 -11 44 c-14 56 -14 157 0 188 l11 25 76 -45 c42 -25 91 -55 109 -68z m313
48 c12 -56 9 -110 -11 -169 l-10 -32 -92 55 c-51 31 -98 61 -105 68 -11 10 6
24 90 73 57 34 106 61 110 62 4 0 12 -25 18 -57z m610 -7 c0 -6 -5 -18 -10
-26 -8 -13 -11 -13 -25 1 -21 20 -10 48 16 42 10 -3 19 -10 19 -17z m-510 -6
c0 -19 -11 -26 -23 -14 -8 8 3 34 14 34 5 0 9 -9 9 -20z m-1124 -101 l46 -85
-32 -34 c-42 -45 -56 -75 -64 -135 -5 -35 -3 -65 8 -95 8 -24 14 -45 13 -46
-1 -1 -46 -27 -101 -59 -73 -42 -101 -54 -110 -45 -8 8 -7 14 4 21 13 10 13
10 -1 6 -15 -5 -40 34 -73 117 -19 47 -19 47 -1 40 9 -4 15 0 15 9 0 19 -27
30 -33 14 -9 -25 -49 132 -54 216 l-6 87 29 1 c16 0 38 2 49 4 89 16 147 32
190 51 28 12 56 22 63 21 7 -1 34 -41 58 -88z m1694 23 c36 -12 98 -24 138
-28 71 -7 72 -7 72 -36 0 -56 -22 -173 -35 -188 -9 -10 -11 -21 -5 -30 5 -8 5
-19 1 -25 -5 -5 -14 -28 -21 -50 -28 -92 -100 -218 -100 -175 0 6 -5 10 -12
10 -6 0 -51 24 -100 53 -63 37 -86 56 -82 67 35 86 20 176 -42 248 l-37 43 20
27 c10 15 32 52 48 83 l29 57 30 -18 c17 -9 60 -26 96 -38z m110 49 c-1 -12
-41 -54 -46 -49 -3 3 2 13 11 22 9 9 14 20 11 24 -3 5 1 9 9 9 8 0 15 -3 15
-6z m-1048 -171 l-3 -130 -30 0 c-16 0 -46 7 -66 15 -44 19 -128 104 -115 117
5 5 56 36 113 68 57 33 104 59 104 60 0 0 -1 -58 -3 -130z m55 108 c15 -7 30
-15 33 -19 3 -3 38 -25 77 -48 l73 -43 -21 -30 c-36 -49 -126 -96 -191 -98 -5
0 -8 56 -8 125 0 69 2 125 5 125 2 0 17 -6 32 -12z m-520 -119 c60 -29 84 -73
85 -154 1 -157 -113 -247 -256 -202 -104 33 -157 125 -134 231 27 126 175 187
305 125z m1118 10 c49 -13 69 -31 102 -87 37 -62 36 -137 -2 -192 -30 -44 -42
-53 -24 -17 12 22 12 22 -9 4 -11 -11 -18 -25 -16 -32 13 -33 -109 -71 -172
-54 -78 22 -147 117 -147 203 0 28 8 68 17 88 17 35 73 81 112 91 35 9 98 7
139 -4z m-939 -127 c69 -68 151 -111 226 -121 l53 -6 0 -75 c0 -70 -1 -74 -24
-80 -14 -3 -27 -12 -29 -19 -3 -10 0 -12 12 -8 9 4 16 2 16 -4 0 -13 -13 -16
-85 -23 -71 -7 -115 -18 -189 -51 -62 -27 -55 -31 -109 66 l-36 66 31 29 c44
42 67 100 69 176 1 35 -2 74 -5 86 -11 35 6 26 70 -36z m650 36 c-16 -59 -17
-96 -3 -136 13 -38 13 -41 0 -30 -14 11 -15 10 -9 -8 5 -17 -1 -28 -25 -49
-19 -15 -40 -24 -51 -22 -22 6 -24 -9 -3 -30 13 -12 18 -13 31 -2 11 9 18 9
26 1 18 -18 32 -14 18 4 -11 13 -9 19 14 42 24 24 28 25 37 10 5 -9 17 -25 26
-34 16 -15 14 -22 -28 -101 -24 -46 -47 -86 -50 -89 -4 -2 -32 8 -63 22 -30
14 -87 33 -126 42 -63 14 -70 19 -70 40 0 21 -4 24 -33 20 l-33 -4 -3 82 -2
81 59 6 c86 7 193 65 240 129 39 52 58 62 48 26z m790 -203 c-1 -107 -4 -196
-7 -199 -2 -2 -32 11 -66 31 l-63 35 26 51 c33 64 94 232 94 257 0 11 4 20 9
20 4 0 8 -88 7 -195z m-2202 -49 c21 -43 34 -81 29 -86 -4 -4 -33 -21 -65 -39
l-56 -31 -1 192 0 193 28 -75 c15 -41 45 -110 65 -154z m1296 204 c0 -5 -9
-14 -19 -19 -14 -8 -20 -7 -25 5 -3 8 -2 13 2 10 4 -2 14 -1 22 5 19 11 20 11
20 -1z m-191 -81 c-16 -10 -23 -4 -14 10 3 6 11 8 17 5 6 -4 5 -9 -3 -15z
m-794 -122 c50 -48 122 -71 200 -63 l63 6 42 -76 c23 -42 38 -79 33 -83 -4 -4
-36 -31 -70 -60 -34 -29 -66 -51 -70 -50 -4 2 -10 -6 -12 -16 -2 -11 -15 -34
-29 -53 -19 -25 -27 -30 -34 -20 -6 9 -7 6 -3 -9 3 -12 1 -24 -5 -28 -13 -8
-95 53 -173 129 -67 66 -179 214 -174 230 3 8 181 123 195 125 2 1 18 -14 37
-32z m1540 19 c11 -7 40 -24 65 -38 88 -49 120 -70 120 -78 0 -19 -122 -169
-186 -229 -100 -92 -181 -158 -188 -150 -1 2 -22 32 -45 66 -44 66 -127 153
-173 180 l-26 16 31 56 c16 31 36 63 44 72 7 8 13 23 13 32 0 21 1 21 36 2 50
-26 132 -19 204 16 35 18 65 40 67 50 6 23 12 23 38 5z m-1616 -346 l96 -95
-155 92 c-85 51 -179 105 -207 121 -29 15 -53 29 -53 32 0 3 31 21 68 41 l67
37 44 -67 c24 -36 87 -109 140 -161z m811 220 c0 -5 -5 -10 -11 -10 -5 0 -7 5
-4 10 3 6 8 10 11 10 2 0 4 -4 4 -10z m75 0 c4 -6 -7 -10 -24 -10 -17 0 -31 5
-31 10 0 6 11 10 24 10 14 0 28 -4 31 -10z m1019 -39 c47 -24 55 -32 40 -38
-10 -4 -79 -42 -154 -86 -74 -43 -154 -90 -177 -103 -38 -22 -34 -17 36 55 43
43 99 111 126 150 31 46 52 68 59 62 6 -5 37 -23 70 -40z m-974 3 c40 -5 152
-40 192 -61 24 -11 26 -16 16 -32 -6 -11 -19 -16 -29 -14 -11 3 -17 9 -14 13
7 11 -5 40 -16 40 -5 0 -9 -7 -9 -15 0 -9 -7 -18 -15 -21 -8 -4 -15 -14 -15
-24 0 -22 49 -33 69 -17 10 9 9 2 -3 -21 -13 -25 -22 -32 -34 -26 -98 43 -129
48 -252 48 -119 0 -129 -1 -204 -33 l-79 -34 -18 24 c-10 13 -27 41 -38 62
l-20 37 27 13 c142 71 247 85 442 61z m-1348 -43 c-2 -8 2 -17 8 -21 16 -10
-9 -50 -32 -50 -41 0 -64 60 -30 79 23 14 58 9 54 -8z m418 -201 c124 -73 299
-175 389 -228 139 -81 161 -97 142 -103 -24 -9 -29 -39 -6 -39 19 0 19 -7 0
-27 -13 -13 -23 -13 -66 -3 -28 7 -53 18 -56 26 -2 7 -12 10 -20 7 -9 -4 -21
1 -29 12 -7 10 -20 15 -28 12 -22 -9 -230 100 -319 167 -95 71 -227 211 -234
248 -3 16 -11 28 -18 28 -7 0 -24 18 -39 41 l-27 41 43 -25 c24 -14 144 -85
268 -157z m1899 123 c-100 -137 -231 -276 -311 -328 -24 -15 -68 -45 -98 -65
-31 -21 -98 -53 -150 -73 -114 -42 -490 -122 -464 -98 12 11 516 307 579 340
28 14 52 29 55 32 3 3 64 40 135 81 72 42 164 96 205 121 41 25 79 46 83 46 4
1 -11 -25 -34 -56z m-1449 12 c6 -8 9 -23 5 -35 -8 -25 -45 -27 -45 -3 0 16
-1 16 -16 1 -9 -9 -18 -27 -19 -40 -2 -12 -4 -27 -5 -33 -8 -38 7 -44 37 -16
12 11 23 17 26 14 3 -3 12 4 19 16 15 24 43 28 51 6 4 -9 -5 -23 -24 -36 -24
-17 -33 -18 -44 -9 -9 8 -15 8 -15 2 0 -6 5 -12 10 -14 6 -2 -5 -18 -24 -37
l-34 -33 -27 41 c-29 43 -51 55 -40 21 9 -29 -2 -42 -25 -28 -26 17 -33 6 -18
-28 23 -52 42 -56 57 -14 11 33 22 37 41 15 10 -12 8 -21 -14 -50 l-27 -35
-50 26 c-27 15 -54 33 -59 39 -18 22 92 154 184 223 34 26 40 27 56 7z m792
-30 c47 -37 167 -184 168 -206 0 -4 -23 -18 -51 -31 l-52 -24 -98 100 c-83 85
-96 103 -88 119 10 18 11 18 29 -3 10 -11 22 -19 28 -18 5 2 19 -7 30 -20 17
-19 21 -20 32 -7 7 8 22 15 34 16 11 0 15 3 9 6 -7 2 -13 12 -13 20 0 14 -3
14 -20 -2 -11 -10 -23 -15 -27 -12 -3 4 -1 7 5 7 7 0 12 5 12 11 0 6 -7 9 -15
5 -18 -7 -20 15 -3 32 9 9 9 12 -3 12 -8 0 -20 -5 -26 -11 -8 -8 -14 -5 -23
10 -10 20 -7 41 8 41 4 0 33 -20 64 -45z m-436 -57 c-2 -29 -4 -110 -5 -180
l-1 -128 -45 0 c-34 0 -47 5 -55 19 -7 13 -7 22 0 26 19 12 10 35 -13 35 -17
0 -35 21 -83 103 l-61 102 51 25 c52 25 139 48 188 49 27 1 27 0 24 -51z m187
23 c83 -32 82 -30 49 -92 -16 -30 -53 -96 -82 -146 l-52 -93 -45 0 c-42 0 -45
2 -39 23 3 12 6 93 6 180 l0 159 60 -7 c33 -4 79 -14 103 -24z m172 -109 c33
-31 73 -72 88 -91 l28 -34 -55 -23 c-68 -28 -209 -64 -249 -64 l-28 0 52 98
c69 128 71 132 88 129 8 -1 16 4 18 11 3 6 0 12 -6 12 -6 0 -11 5 -11 10 0 19
15 9 75 -48z m-623 16 c8 -18 41 -75 72 -127 31 -52 54 -96 51 -99 -14 -15
-326 69 -325 87 0 3 12 19 26 35 l25 29 43 -22 c24 -11 47 -21 51 -21 13 0
-36 39 -57 46 -10 3 -17 11 -15 17 3 12 97 87 108 87 3 0 12 -15 21 -32z m-91
-204 c24 -8 86 -24 138 -35 52 -11 98 -22 102 -25 23 -14 71 -124 53 -124 -3
0 -69 38 -147 84 -78 46 -155 91 -172 99 -39 21 -29 21 26 1z m734 -8 c-11 -7
-36 -23 -55 -34 -78 -44 -158 -91 -215 -125 -33 -19 -61 -34 -63 -33 -5 6 69
131 85 144 9 6 31 12 47 13 17 0 69 11 116 23 106 29 109 29 85 12z m-385
-107 c0 -35 -4 -58 -9 -54 -5 3 -23 30 -39 60 l-30 55 39 0 39 0 0 -61z m74
14 c-53 -92 -54 -93 -54 -42 0 25 5 50 12 57 9 9 9 12 0 12 -7 0 -12 5 -12 10
0 6 18 10 40 10 l41 0 -27 -47z m-181 -78 c50 -29 62 -48 25 -41 -13 3 -48 8
-78 11 -87 10 -98 14 -93 36 3 10 9 19 13 19 5 0 12 9 15 20 6 20 7 20 38 2
18 -11 53 -32 80 -47z"/>
<path d="M1192 2919 c2 -7 10 -15 17 -17 8 -3 12 1 9 9 -2 7 -10 15 -17 17 -8
3 -12 -1 -9 -9z"/>
<path d="M2490 3021 c0 -27 19 -36 37 -18 18 18 9 37 -18 37 -12 0 -19 -7 -19
-19z"/>
<path d="M1664 2935 c-7 -18 3 -35 21 -35 18 0 26 25 12 39 -15 15 -27 14 -33
-4z"/>
<path d="M1765 2690 c3 -5 8 -10 11 -10 2 0 4 5 4 10 0 6 -5 10 -11 10 -5 0
-7 -4 -4 -10z"/>
<path d="M1685 2650 c-3 -5 -1 -10 4 -10 6 0 11 5 11 10 0 6 -2 10 -4 10 -3 0
-8 -4 -11 -10z"/>
<path d="M1438 2657 c6 -7 9 -23 5 -35 -4 -17 -1 -22 15 -22 11 0 22 8 25 20
4 14 10 18 23 13 14 -5 16 -3 11 11 -4 10 -7 20 -7 22 0 2 -19 4 -41 4 -33 0
-39 -3 -31 -13z"/>
<path d="M1200 2699 c0 -5 5 -7 10 -4 6 3 10 8 10 11 0 2 -4 4 -10 4 -5 0 -10
-5 -10 -11z"/>
<path d="M1280 2650 c0 -5 5 -10 10 -10 6 0 10 5 10 10 0 6 -4 10 -10 10 -5 0
-10 -4 -10 -10z"/>
<path d="M1955 2705 c-16 -8 -44 -31 -62 -51 -17 -20 -37 -33 -42 -29 -6 3
-11 -1 -11 -9 0 -22 34 -38 48 -24 7 7 12 17 12 24 0 7 16 26 35 43 62 55 152
39 180 -31 12 -31 20 -39 37 -36 25 3 37 28 14 28 -8 0 -22 15 -31 34 -28 59
-115 84 -180 51z"/>
<path d="M1973 2665 c-32 -14 -63 -59 -63 -92 0 -10 7 -28 15 -40 14 -20 14
-25 -1 -56 -12 -26 -21 -33 -35 -30 -29 8 -23 -22 6 -35 38 -17 46 -15 40 11
-10 37 22 64 81 70 47 5 52 4 65 -19 11 -21 11 -27 0 -34 -13 -7 -7 -30 7 -30
4 0 28 20 55 43 48 44 59 73 31 84 -23 9 -49 -10 -49 -35 0 -33 -13 -36 -29
-5 -9 19 -11 34 -5 44 12 20 11 63 -3 93 -10 23 -20 29 -68 41 -8 2 -29 -2
-47 -10z m79 -32 c22 -20 23 -70 1 -95 -9 -10 -30 -18 -49 -18 -66 0 -83 87
-23 117 32 17 49 16 71 -4z"/>
<path d="M1266 2054 c-9 -8 -16 -18 -16 -20 0 -7 38 15 45 26 10 16 -12 12
-29 -6z"/>
<path d="M1570 2485 c0 -8 7 -15 15 -15 8 0 15 7 15 15 0 8 -7 15 -15 15 -8 0
-15 -7 -15 -15z"/>
<path d="M1690 2420 c0 -5 5 -10 11 -10 5 0 7 5 4 10 -3 6 -8 10 -11 10 -2 0
-4 -4 -4 -10z"/>
<path d="M1664 2394 c6 -15 4 -15 -10 -3 -16 13 -17 11 -11 -13 6 -21 2 -30
-15 -42 -21 -15 -23 -15 -30 5 -4 11 -12 17 -18 14 -12 -8 -13 -35 -1 -35 5 0
11 -9 14 -20 6 -23 27 -27 27 -6 0 20 22 25 38 9 16 -15 36 -7 25 10 -15 23
-13 47 2 41 12 -5 13 -1 4 25 -6 17 -15 31 -21 31 -6 0 -7 -7 -4 -16z"/>
<path d="M1710 2383 c0 -12 5 -25 11 -29 8 -4 7 -9 -2 -15 -11 -7 -10 -9 3 -9
26 0 29 14 7 46 -17 26 -19 27 -19 7z"/>
<path d="M1620 2354 c0 -8 5 -12 10 -9 6 4 8 11 5 16 -9 14 -15 11 -15 -7z"/>
<path d="M1545 2290 c-3 -5 -1 -19 6 -32 11 -21 12 -21 25 -3 17 22 8 40 -12
24 -12 -10 -13 -9 -8 5 7 17 -1 22 -11 6z"/>
<path d="M2500 2511 c0 -6 -7 -8 -15 -5 -16 6 -21 -11 -6 -20 13 -8 1 -56 -14
-56 -8 0 -11 -8 -8 -21 4 -14 12 -19 24 -16 28 8 32 -9 7 -27 -28 -20 -23 -24
32 -26 61 -3 70 -2 70 11 0 6 -7 8 -16 5 -16 -6 -40 37 -46 87 -2 14 -7 29
-10 33 -4 3 -4 12 -2 19 3 7 1 16 -5 20 -6 3 -11 2 -11 -4z"/>
<path d="M751 2067 c-15 -19 10 -53 33 -44 21 8 21 43 0 51 -21 8 -20 8 -33
-7z"/>
<path d="M747 1700 c3 -11 9 -17 15 -14 5 3 4 12 -3 20 -16 19 -18 18 -12 -6z"/>
<path d="M720 1670 c0 -5 5 -10 11 -10 5 0 7 5 4 10 -3 6 -8 10 -11 10 -2 0
-4 -4 -4 -10z"/>
<path d="M2215 2436 l-29 -25 24 -19 c22 -18 23 -18 47 4 26 24 28 57 2 62 -8
1 -28 -8 -44 -22z"/>
<path d="M2265 2381 c-3 -5 9 -20 27 -32 18 -13 35 -26 38 -29 22 -24 51 -41
60 -35 8 5 6 13 -6 27 -15 16 -16 21 -4 28 8 5 11 12 7 16 -4 4 -13 2 -19 -4
-18 -18 -32 -14 -17 5 12 15 12 16 -4 10 -11 -4 -24 -1 -33 8 -17 17 -40 20
-49 6z"/>
<path d="M2407 2278 c-17 -13 -17 -15 -3 -27 20 -17 29 -10 24 19 -3 19 -5 19
-21 8z"/>
<path d="M2310 2231 c-7 -15 -6 -23 6 -35 19 -19 26 -20 42 -4 17 17 15 45 -4
52 -25 10 -33 7 -44 -13z"/>
<path d="M2437 2238 c-15 -12 -15 -15 2 -35 13 -15 22 -19 32 -11 12 8 12 10
0 15 -10 4 -11 7 -1 13 7 4 9 13 6 19 -9 14 -18 14 -39 -1z"/>
<path d="M3212 2288 c6 -18 28 -21 28 -4 0 9 -7 16 -16 16 -9 0 -14 -5 -12
-12z"/>
<path d="M3170 2240 c0 -5 7 -10 15 -10 8 0 15 5 15 10 0 6 -7 10 -15 10 -8 0
-15 -4 -15 -10z"/>
<path d="M973 2194 c-8 -21 13 -42 28 -27 13 13 5 43 -11 43 -6 0 -13 -7 -17
-16z"/>
<path d="M1799 2205 c-1 -3 -2 -11 -3 -17 -1 -7 -11 -13 -22 -12 -16 0 -21 -6
-21 -23 0 -13 2 -23 5 -23 6 0 72 41 72 45 0 21 -27 47 -31 30z"/>
<path d="M1708 2101 c-6 -10 -18 -17 -25 -14 -18 7 -16 -2 3 -21 14 -14 18
-13 40 13 13 16 24 32 24 35 0 14 -31 4 -42 -13z"/>
<path d="M1649 2024 c0 -11 -2 -29 -5 -42 -3 -18 0 -23 12 -20 17 3 48 78 33
78 -5 0 -9 -5 -9 -11 0 -8 -5 -8 -15 1 -12 10 -15 9 -16 -6z"/>
<path d="M1743 1644 c-6 -16 8 -32 50 -55 11 -7 17 -6 17 1 0 6 -7 13 -16 17
-8 3 -13 12 -9 20 4 11 1 13 -10 9 -9 -3 -13 -2 -10 3 3 5 1 12 -5 16 -6 3
-13 -1 -17 -11z"/>
<path d="M1425 2070 c3 -5 8 -10 11 -10 2 0 4 5 4 10 0 6 -5 10 -11 10 -5 0
-7 -4 -4 -10z"/>
<path d="M1385 1960 c-3 -5 -1 -10 4 -10 6 0 11 5 11 10 0 6 -2 10 -4 10 -3 0
-8 -4 -11 -10z"/>
<path d="M2515 2073 c4 -16 8 -45 9 -65 1 -35 16 -68 16 -35 0 10 7 17 16 17
9 0 14 6 11 13 -17 47 -18 57 -3 57 9 0 16 5 16 10 0 6 -9 10 -20 10 -11 0
-20 5 -20 10 0 6 -7 10 -16 10 -13 0 -15 -6 -9 -27z"/>
<path d="M2890 1590 c0 -5 7 -10 16 -10 8 0 12 5 9 10 -3 6 -10 10 -16 10 -5
0 -9 -4 -9 -10z"/>
<path d="M1357 1723 c-12 -11 -8 -23 9 -23 31 0 10 -34 -26 -41 -20 -4 -47
-21 -62 -38 -52 -58 -30 -169 41 -206 38 -19 51 -19 101 1 29 12 46 27 60 55
14 26 25 37 35 33 8 -4 15 -12 15 -20 0 -31 28 -12 32 22 4 33 -11 61 -20 36
-2 -7 -15 -9 -32 -6 -26 6 -30 2 -48 -39 -16 -37 -27 -47 -56 -55 -37 -11 -72
-6 -93 11 -20 15 -16 24 21 46 40 25 47 26 40 6 -12 -29 24 -15 36 15 18 44 8
60 -40 60 -39 0 -52 -12 -29 -26 8 -4 3 -12 -12 -20 -38 -21 -49 -17 -49 19 0
43 28 69 83 76 l42 6 3 48 c3 44 1 47 -21 47 -13 0 -27 -3 -30 -7z"/>
<path d="M2464 1690 c-34 -15 -64 -32 -66 -36 -8 -13 14 -144 24 -144 4 0 8
25 8 55 0 53 1 55 20 43 13 -8 20 -24 20 -44 0 -35 22 -59 61 -69 26 -6 26 -9
17 -43 -6 -20 -17 -41 -24 -45 -23 -13 -6 -27 31 -27 38 0 53 14 29 28 -13 7
-14 15 -5 49 13 49 43 88 81 108 26 14 30 13 39 -3 7 -12 13 -14 21 -6 8 8 7
21 -4 48 -14 34 -36 42 -36 13 0 -7 -13 -18 -30 -24 -26 -10 -30 -9 -36 10 -4
12 -14 27 -23 34 -22 17 -76 16 -91 -2 -9 -11 -17 -12 -31 -4 -28 15 -24 23
26 48 46 23 66 42 43 40 -7 0 -41 -13 -74 -29z m119 -104 c8 -23 6 -32 -11
-49 -18 -18 -25 -19 -47 -9 -27 12 -32 40 -14 73 16 31 60 22 72 -15z"/>
<path d="M2673 1503 c-14 -5 -18 -33 -5 -33 4 0 14 5 22 10 17 11 2 30 -17 23z"/>
<path d="M1650 1425 c0 -8 -7 -15 -16 -15 -8 0 -12 -5 -9 -11 4 -6 13 -8 21
-5 7 3 25 -1 40 -8 23 -13 24 -15 9 -24 -15 -8 -14 -10 9 -16 15 -4 31 -4 36
-1 4 3 21 0 36 -5 19 -8 30 -8 38 0 13 13 -12 33 -28 23 -5 -3 -15 2 -22 11
-12 17 -13 17 -26 -3 -7 -12 -16 -21 -21 -21 -4 0 0 11 9 25 15 23 15 25 0 25
-9 0 -26 9 -38 20 -26 24 -38 25 -38 5z"/>
<path d="M1824 1338 c-9 -14 2 -20 45 -24 35 -3 61 9 49 22 -10 9 -88 11 -94
2z"/>
<path d="M2150 1365 c0 -8 -4 -15 -9 -15 -5 0 -22 -5 -37 -10 -45 -18 -15 -34
35 -19 42 13 45 16 35 43 -8 20 -24 21 -24 1z"/>
<path d="M2208 1373 c-12 -3 -18 -14 -18 -34 0 -31 19 -42 21 -11 0 10 3 12 6
5 2 -7 11 -13 20 -13 10 0 12 6 8 23 -9 29 -16 34 -37 30z"/>
<path d="M2160 1300 c0 -5 5 -10 10 -10 6 0 10 5 10 10 0 6 -4 10 -10 10 -5 0
-10 -4 -10 -10z"/>
<path d="M2493 1200 c-3 -11 -11 -20 -18 -20 -19 0 -36 -25 -29 -43 9 -24 45
-32 59 -14 15 21 18 97 4 97 -6 0 -13 -9 -16 -20z"/>
<path d="M1866 1232 c-4 -6 -4 -16 -1 -22 3 -5 -3 -10 -14 -10 -16 0 -21 -6
-21 -26 0 -23 3 -25 23 -19 12 3 42 9 67 12 25 2 46 6 48 7 1 2 -4 18 -12 37
l-14 34 -7 -27 c-9 -35 -47 -33 -55 3 -4 16 -8 20 -14 11z"/>
<path d="M2013 1199 c-17 -17 -16 -29 2 -29 9 0 12 -6 9 -15 -4 -8 -2 -15 4
-15 6 0 13 6 15 13 4 8 6 8 6 -2 1 -12 4 -11 14 2 11 15 16 16 61 2 40 -12 51
-13 58 -3 14 24 9 41 -12 35 -10 -3 -20 -1 -22 5 -5 15 -121 21 -135 7z"/>
<path d="M1665 1157 c8 -13 13 -26 10 -29 -3 -3 0 -10 8 -16 17 -14 121 32
115 50 -5 15 -48 24 -48 10 0 -5 -9 -12 -20 -15 -13 -3 -20 0 -20 9 0 8 -4 14
-10 14 -5 0 -10 -5 -10 -12 0 -9 -3 -9 -12 0 -21 21 -29 13 -13 -11z"/>
<path d="M704 1199 c-10 -17 13 -36 27 -22 12 12 4 33 -11 33 -5 0 -12 -5 -16
-11z"/>
<path d="M1200 911 c0 -5 7 -11 15 -15 9 -3 15 0 15 9 0 8 -7 15 -15 15 -8 0
-15 -4 -15 -9z"/>
<path d="M2720 839 c0 -5 5 -7 10 -4 6 3 10 8 10 11 0 2 -4 4 -10 4 -5 0 -10
-5 -10 -11z"/>
<path d="M2275 670 c-3 -5 -1 -10 4 -10 6 0 11 5 11 10 0 6 -2 10 -4 10 -3 0
-8 -4 -11 -10z"/>
<path d="M2413 1014 c-3 -9 3 -21 16 -31 12 -8 26 -26 31 -39 9 -23 40 -34 40
-14 0 6 -6 10 -12 10 -9 0 -9 3 1 9 12 8 12 13 3 24 -7 8 -9 22 -6 32 6 14 3
16 -14 11 -11 -4 -23 -2 -27 4 -9 15 -25 12 -32 -6z"/>
<path d="M1945 981 c-3 -5 -1 -12 5 -16 5 -3 10 1 10 9 0 18 -6 21 -15 7z"/>
<path d="M1895 870 c3 -5 8 -10 11 -10 2 0 4 5 4 10 0 6 -5 10 -11 10 -5 0 -7
-4 -4 -10z"/>
<path d="M2076 930 c-11 -3 -15 -9 -10 -13 10 -6 42 9 34 16 -3 3 -14 1 -24
-3z"/>
<path d="M3230 3225 c0 -9 5 -15 11 -13 6 2 11 8 11 13 0 5 -5 11 -11 13 -6 2
-11 -4 -11 -13z"/>
<path d="M3575 3220 c-7 -12 2 -30 16 -30 12 0 12 27 0 35 -5 3 -12 1 -16 -5z"/>
<path d="M2551 3207 c-13 -16 -5 -27 21 -27 11 0 26 -7 34 -15 19 -19 34 -19
34 -1 0 8 10 22 22 30 12 9 19 19 15 23 -4 4 -15 0 -23 -9 -14 -14 -19 -14
-43 -2 -33 17 -46 18 -60 1z"/>
<path d="M1256 3184 c-3 -9 -3 -20 0 -26 4 -6 0 -14 -7 -19 -11 -6 -11 -11 -1
-21 9 -9 16 -7 33 11 l21 22 -21 6 c-17 4 -19 9 -10 24 5 11 6 19 0 19 -5 0
-12 -7 -15 -16z"/>
<path d="M2697 3172 c-29 -30 -33 -42 -15 -42 6 0 25 -10 42 -23 43 -32 66
-40 66 -22 0 8 9 15 20 15 11 0 20 5 20 10 0 6 -7 10 -16 10 -14 0 -14 3 -4
15 8 10 9 15 2 15 -6 0 -15 -7 -20 -16 -9 -16 -11 -15 -34 2 l-25 18 21 18
c12 9 16 17 10 18 -6 0 -24 -12 -39 -27 -28 -28 -26 -14 3 20 25 28 -2 19 -31
-11z"/>
<path d="M255 3171 c-3 -5 -1 -12 5 -16 5 -3 10 1 10 9 0 18 -6 21 -15 7z"/>
<path d="M340 3170 c0 -13 28 -25 38 -16 3 4 0 11 -8 16 -20 13 -30 12 -30 0z"/>
<path d="M3270 3160 c0 -5 5 -10 10 -10 6 0 10 5 10 10 0 6 -4 10 -10 10 -5 0
-10 -4 -10 -10z"/>
<path d="M725 3081 c-3 -5 -1 -12 5 -16 5 -3 10 1 10 9 0 18 -6 21 -15 7z"/>
<path d="M2813 3073 c-21 -8 -15 -23 12 -33 14 -5 25 -14 25 -20 0 -5 7 -10
15 -10 8 0 15 -4 15 -10 0 -22 20 -8 26 18 4 15 12 30 18 34 8 5 7 11 -1 19
-10 10 -17 9 -33 -6 -19 -17 -21 -17 -38 -2 -20 18 -20 18 -39 10z"/>
<path d="M2860 3070 c0 -5 5 -10 10 -10 6 0 10 5 10 10 0 6 -4 10 -10 10 -5 0
-10 -4 -10 -10z"/>
<path d="M496 3044 c-19 -18 -19 -20 -6 -45 22 -41 78 -11 66 36 -7 29 -36 33
-60 9z"/>
<path d="M385 3040 c3 -5 11 -10 16 -10 6 0 7 5 4 10 -3 6 -11 10 -16 10 -6 0
-7 -4 -4 -10z"/>
<path d="M980 3039 c0 -8 9 -33 19 -56 16 -35 17 -41 4 -36 -8 3 -19 0 -23 -8
-7 -10 -11 -7 -19 14 -6 15 -13 27 -17 27 -9 0 5 -52 23 -78 l15 -24 24 23 24
22 8 -23 c6 -16 11 -19 16 -12 4 7 -3 29 -15 50 -13 20 -17 32 -9 25 12 -9 22
-5 48 21 22 22 31 38 26 49 -8 21 -24 22 -24 1 0 -8 -5 -12 -11 -9 -6 4 -13
-2 -16 -13 -3 -12 -13 -20 -23 -19 -10 0 -16 6 -14 12 3 6 -4 20 -16 30 -15
14 -20 15 -20 4z"/>
<path d="M3560 2988 c0 -7 7 -22 15 -32 14 -19 15 -18 15 12 0 22 -5 32 -15
32 -8 0 -15 -6 -15 -12z"/>
<path d="M3517 2913 c-12 -11 -8 -23 8 -23 8 0 15 7 15 15 0 16 -12 20 -23 8z"/>
<path d="M894 2845 c-14 -25 -33 -49 -42 -54 -14 -8 -14 -12 -3 -25 12 -14 11
-16 -3 -10 -14 5 -17 2 -14 -17 2 -18 10 -24 31 -26 23 -1 27 1 23 14 -5 13
-4 14 9 3 18 -15 20 1 3 18 -9 9 -7 18 8 39 33 45 44 71 38 87 -10 26 -22 19
-50 -29z m26 -9 c0 -3 -4 -8 -10 -11 -5 -3 -10 -1 -10 4 0 6 5 11 10 11 6 0
10 -2 10 -4z"/>
<path d="M170 2860 c0 -5 5 -10 10 -10 6 0 10 5 10 10 0 6 -4 10 -10 10 -5 0
-10 -4 -10 -10z"/>
<path d="M300 2860 c0 -5 5 -10 10 -10 6 0 10 5 10 10 0 6 -4 10 -10 10 -5 0
-10 -4 -10 -10z"/>
<path d="M3048 2865 c-10 -10 4 -56 16 -52 11 4 76 -57 76 -72 0 -5 7 -14 16
-22 13 -10 17 -10 25 2 13 20 12 22 -20 43 -26 18 -27 22 -18 53 6 18 15 33
21 34 6 0 -2 5 -19 10 -17 5 -31 5 -35 -1 -3 -5 -11 -5 -20 0 -17 11 -34 13
-42 5z"/>
<path d="M3150 2800 c0 -5 5 -10 10 -10 6 0 10 5 10 10 0 6 -4 10 -10 10 -5 0
-10 -4 -10 -10z"/>
<path d="M3583 2710 c-17 -27 -16 -47 3 -54 33 -13 46 23 22 57 -12 16 -14 16
-25 -3z"/>
<path d="M3190 2680 c-47 -47 -11 -152 57 -166 39 -8 73 22 73 66 0 41 -16 38
-24 -4 -15 -82 -106 -35 -106 55 0 37 35 58 69 40 17 -9 21 -9 21 3 0 31 -61
35 -90 6z"/>
<path d="M304 2636 c-11 -28 1 -51 25 -51 32 0 49 28 32 49 -17 20 -50 21 -57
2z"/>
<path d="M3233 2633 c-16 -6 -17 -39 -2 -49 6 -3 18 1 27 10 14 14 14 18 2 30
-8 7 -21 12 -27 9z"/>
<path d="M663 2516 c4 -11 1 -13 -11 -10 -9 3 -2 -9 17 -26 19 -18 28 -31 20
-28 -8 3 -19 -2 -26 -11 -10 -14 -13 -14 -32 3 -30 27 -36 14 -7 -13 14 -13
22 -29 20 -35 -5 -12 23 -43 30 -35 2 2 15 30 29 61 24 54 25 57 7 63 -11 3
-22 15 -25 26 -4 10 -11 19 -17 19 -5 0 -8 -7 -5 -14z"/>
<path d="M3330 2495 c7 -9 15 -13 17 -11 7 7 -7 26 -19 26 -6 0 -6 -6 2 -15z"/>
<path d="M3637 2477 c-7 -19 8 -41 22 -33 16 10 14 46 -3 46 -8 0 -16 -6 -19
-13z"/>
<path d="M3400 2450 c0 -5 5 -10 10 -10 6 0 10 5 10 10 0 6 -4 10 -10 10 -5 0
-10 -4 -10 -10z"/>
<path d="M3388 2185 c2 -14 8 -25 12 -25 5 0 6 -9 3 -20 -4 -16 0 -20 21 -20
14 0 25 5 24 12 -2 6 8 15 22 19 l25 9 -27 -4 c-27 -3 -44 14 -39 42 1 7 -9
12 -22 12 -20 0 -23 -4 -19 -25z"/>
<path d="M534 2165 c15 -11 17 -18 8 -27 -8 -8 -15 -8 -26 1 -10 8 -16 9 -21
1 -6 -9 33 -30 56 -30 5 0 9 -4 9 -10 0 -5 -7 -7 -15 -4 -10 4 -15 0 -15 -11
0 -9 -5 -13 -11 -10 -6 4 -5 -2 3 -14 14 -23 47 -29 50 -8 0 6 3 23 5 37 11
79 10 82 -27 86 -33 3 -34 3 -16 -11z"/>
<path d="M3470 2111 c0 -6 -12 -8 -28 -5 -25 5 -29 3 -27 -18 1 -15 9 -24 23
-26 12 -2 22 1 22 7 0 6 9 11 21 11 14 0 19 5 17 17 -3 18 -28 31 -28 14z"/>
<path d="M518 2018 c20 -20 15 -40 -8 -33 -24 8 -26 -2 -3 -27 16 -18 16 -18
0 -12 -10 3 -17 1 -17 -5 0 -12 43 -25 62 -19 8 3 11 20 9 49 -3 51 -2 48 -31
54 -18 3 -21 2 -12 -7z"/>
<path d="M3425 1973 c2 -27 4 -51 4 -54 1 -4 12 -10 25 -13 13 -3 31 -9 40
-12 25 -10 19 10 -6 21 -16 7 -22 18 -21 33 2 12 -2 22 -8 22 -8 0 -8 4 0 14
10 12 8 17 -8 25 -29 16 -30 15 -26 -36z"/>
<path d="M486 1885 c-21 -16 -20 -16 39 -31 21 -5 25 -8 13 -11 -21 -5 -24
-19 -5 -26 10 -4 10 -6 0 -6 -7 -1 -13 -8 -13 -16 0 -11 -7 -14 -25 -9 -14 3
-25 2 -25 -4 0 -5 14 -12 31 -16 58 -11 59 -11 59 54 0 36 4 60 11 60 5 0 7 5
4 10 -9 15 -25 12 -25 -5 0 -19 -19 -19 -34 0 -10 12 -14 12 -30 0z"/>
<path d="M3431 1863 c-1 -10 -3 -34 -6 -53 -6 -33 -4 -36 34 -52 41 -17 58 -8
22 12 -19 10 -23 43 -8 67 4 6 1 15 -6 20 -27 22 -36 23 -36 6z"/>
<path d="M3415 1740 c3 -5 8 -10 11 -10 2 0 4 5 4 10 0 6 -5 10 -11 10 -5 0
-7 -4 -4 -10z"/>
<path d="M522 1733 c-18 -2 -30 -8 -27 -13 3 -5 12 -7 19 -4 10 4 16 -7 21
-35 6 -35 11 -41 31 -41 21 0 23 3 14 26 -6 14 -10 36 -10 50 0 13 -3 23 -7
22 -5 0 -23 -3 -41 -5z"/>
<path d="M3397 1645 c-4 -8 -2 -17 3 -20 7 -4 6 -13 0 -25 -8 -16 -8 -18 5
-14 8 4 15 1 15 -6 0 -6 5 -8 10 -5 7 4 7 12 0 25 -16 30 -12 31 16 5 33 -30
39 -31 41 -5 1 11 -2 20 -8 20 -5 0 -9 6 -9 14 0 8 -5 18 -12 22 -8 5 -9 2 -5
-11 7 -16 6 -17 -17 -1 -31 20 -32 20 -39 1z"/>
<path d="M557 1578 c6 -47 36 -89 52 -73 17 17 -17 115 -39 115 -15 0 -17 -6
-13 -42z"/>
<path d="M3335 1550 c-7 -23 1 -40 18 -40 8 0 7 3 -2 9 -14 9 -9 41 6 41 4 -1
22 -12 38 -26 30 -24 30 -24 5 -22 -14 2 -24 -2 -23 -8 1 -7 -2 -26 -7 -43 -5
-19 -5 -31 1 -31 5 0 9 -7 9 -15 0 -8 -4 -15 -10 -15 -5 0 -10 -8 -10 -17 1
-16 2 -16 15 2 10 12 13 30 9 52 -6 34 11 48 19 16 3 -12 5 -9 6 8 0 14 7 31
14 38 10 10 5 18 -23 42 -40 34 -56 36 -65 9z"/>
<path d="M640 1535 c-6 -8 -10 -19 -8 -24 1 -6 8 1 15 14 13 28 11 31 -7 10z"/>
<path d="M607 1475 c-17 -12 -17 -14 -1 -23 15 -8 13 -11 -14 -17 -25 -5 -29
-9 -19 -19 16 -16 57 -27 57 -15 0 5 8 9 17 9 13 0 14 3 5 12 -7 7 -12 22 -12
34 0 29 -11 35 -33 19z"/>
<path d="M665 1470 c-3 -6 1 -7 9 -4 18 7 21 14 7 14 -6 0 -13 -4 -16 -10z"/>
<path d="M263 1433 c-17 -6 -17 -63 0 -63 20 0 37 22 37 47 0 22 -11 27 -37
16z"/>
<path d="M3345 1409 c-11 -17 1 -21 15 -4 8 9 8 15 2 15 -6 0 -14 -5 -17 -11z"/>
<path d="M670 1380 c0 -5 5 -10 10 -10 6 0 10 5 10 10 0 6 -4 10 -10 10 -5 0
-10 -4 -10 -10z"/>
<path d="M650 1346 c5 -14 6 -26 2 -26 -4 0 0 -5 8 -11 13 -9 13 -10 0 -8 -20
3 -50 -11 -50 -22 0 -16 90 -10 96 6 8 19 -27 79 -49 83 -14 3 -16 -1 -7 -22z"/>
<path d="M3303 1358 c2 -7 14 -13 26 -12 13 0 21 -6 21 -15 0 -9 5 -23 11 -31
9 -12 10 -11 6 7 -3 15 -1 20 9 16 21 -8 17 7 -8 27 -17 13 -25 15 -31 7 -6
-9 -10 -9 -14 1 -2 6 -9 12 -15 12 -5 0 -8 -6 -5 -12z"/>
<path d="M3290 1289 c0 -11 28 -19 45 -13 8 4 15 1 15 -7 0 -7 2 -10 5 -7 3 3
3 12 0 20 -6 15 -65 21 -65 7z"/>
<path d="M3208 1213 c-23 -27 -29 -52 -18 -73 7 -13 7 -21 -2 -26 -6 -4 -14
-2 -16 4 -5 17 -29 15 -36 -3 -4 -10 1 -15 14 -15 22 0 24 -7 11 -29 -5 -7
-14 -10 -20 -7 -6 4 -11 1 -11 -6 0 -17 38 -41 51 -32 8 4 7 9 -2 15 -11 7
-11 12 4 26 15 15 19 16 27 4 7 -12 11 -12 24 -2 19 16 12 33 -11 24 -11 -4
-14 -2 -11 8 3 8 18 17 34 20 22 4 25 8 13 13 -9 4 -22 6 -28 4 -7 -2 -18 5
-24 14 -10 15 -7 23 15 44 25 26 28 26 51 11 19 -12 24 -23 20 -39 -5 -23 -5
-23 16 2 22 27 28 45 11 35 -6 -3 -17 1 -26 9 -21 21 -67 20 -86 -1z"/>
<path d="M216 1186 c7 -19 38 -22 32 -3 -3 6 -12 13 -21 15 -12 2 -15 -1 -11
-12z"/>
<path d="M3796 1141 c-4 -5 -2 -12 3 -15 5 -4 12 -2 15 3 4 5 2 12 -3 15 -5 4
-12 2 -15 -3z"/>
<path d="M170 1064 c0 -8 5 -12 10 -9 6 4 8 11 5 16 -9 14 -15 11 -15 -7z"/>
<path d="M340 1041 c0 -6 4 -12 10 -16 5 -3 7 -12 4 -20 -4 -10 0 -12 15 -8
26 7 27 21 4 39 -21 16 -33 18 -33 5z"/>
<path d="M3046 1034 c-9 -23 -7 -31 3 -15 5 7 14 10 20 6 14 -8 5 -42 -15 -63
-8 -7 -14 -20 -14 -28 0 -8 -5 -14 -12 -14 -12 0 -58 -47 -58 -59 1 -14 19
-35 26 -28 4 3 1 13 -6 22 -7 9 -8 15 -2 15 6 0 12 -6 15 -12 3 -9 11 -6 23 9
l19 22 11 -27 c9 -20 13 -22 13 -9 1 10 6 15 11 12 13 -8 13 -4 -5 38 -13 31
-13 36 1 41 25 10 30 7 43 -20 23 -51 23 -14 0 43 -29 73 -60 101 -73 67z"/>
<path d="M814 998 c-5 -8 -2 -9 9 -5 10 3 17 2 17 -2 0 -5 -6 -12 -12 -14 -10
-4 -10 -6 0 -6 6 -1 12 -6 12 -12 0 -7 10 -20 22 -30 11 -11 18 -19 13 -19 -4
0 4 -12 19 -27 20 -20 29 -24 38 -15 7 7 22 12 35 12 13 0 23 5 23 10 0 6 -7
10 -15 10 -8 0 -15 8 -15 17 0 13 -3 14 -12 5 -16 -16 -28 -15 -28 1 -1 19
-37 57 -52 54 -7 -2 -10 -2 -6 0 4 2 4 11 1 19 -6 17 -39 19 -49 2z"/>
<path d="M3627 990 c-9 -13 -14 -26 -12 -29 9 -8 38 26 33 40 -3 8 -10 5 -21
-11z"/>
<path d="M3490 960 c0 -5 4 -10 10 -10 5 0 7 -7 4 -15 -9 -23 4 -18 17 6 8 15
8 19 0 15 -6 -4 -11 -2 -11 3 0 6 -4 11 -10 11 -5 0 -10 -4 -10 -10z"/>
<path d="M3592 938 c-13 -13 -16 -48 -4 -48 4 0 13 10 20 21 16 24 3 46 -16
27z"/>
<path d="M530 919 c0 -5 5 -7 10 -4 6 3 10 8 10 11 0 2 -4 4 -10 4 -5 0 -10
-5 -10 -11z"/>
<path d="M470 905 c0 -3 9 -24 20 -46 12 -22 25 -59 30 -82 4 -23 15 -59 23
-80 l14 -39 22 27 c30 40 27 68 -9 82 -29 11 -45 37 -53 85 -6 37 -18 58 -33
58 -8 0 -14 -2 -14 -5z"/>
<path d="M425 891 c-7 -12 12 -24 25 -16 11 7 4 25 -10 25 -5 0 -11 -4 -15 -9z"/>
<path d="M3570 860 c0 -5 4 -10 9 -10 6 0 13 5 16 10 3 6 -1 10 -9 10 -9 0
-16 -4 -16 -10z"/>
<path d="M340 850 c0 -5 6 -10 14 -10 8 0 18 5 21 10 3 6 -3 10 -14 10 -12 0
-21 -4 -21 -10z"/>
<path d="M963 846 c-8 -10 -9 -16 0 -25 8 -8 8 -14 -1 -23 -21 -21 -13 -32 11
-12 12 10 16 12 10 4 -20 -22 -15 -31 9 -18 49 28 51 36 21 63 -32 28 -34 29
-50 11z"/>
<path d="M320 836 c0 -9 5 -16 10 -16 6 0 10 4 10 9 0 6 -4 13 -10 16 -5 3
-10 -1 -10 -9z"/>
<path d="M2912 834 c-25 -17 -30 -44 -8 -44 8 0 16 -6 19 -12 3 -8 9 -3 15 12
6 15 11 19 12 10 1 -8 5 -4 9 10 13 43 -6 53 -47 24z"/>
<path d="M3422 718 c-50 -62 -102 -127 -116 -144 -14 -18 -26 -34 -26 -38 0
-3 -25 -43 -56 -88 -30 -45 -58 -86 -60 -90 -3 -4 1 -8 10 -8 8 0 23 15 35 33
11 18 38 52 61 76 39 41 49 69 14 40 -16 -13 -16 -12 -6 7 6 11 27 38 46 60
33 36 196 253 196 261 0 10 -17 -8 -98 -109z"/>
<path d="M1075 780 c-3 -5 1 -10 9 -10 9 0 16 5 16 10 0 6 -4 10 -9 10 -6 0
-13 -4 -16 -10z"/>
<path d="M2793 750 c5 -23 2 -33 -16 -45 -17 -12 -19 -17 -8 -24 10 -7 11 -13
1 -31 -11 -20 -10 -22 4 -17 10 4 16 1 16 -8 0 -8 4 -15 10 -15 5 0 8 12 6 28
-2 15 -1 19 1 10 2 -10 9 -18 15 -18 6 0 8 10 4 25 -5 21 -3 25 15 25 15 0 19
5 15 15 -3 9 0 15 9 15 8 0 15 6 15 13 0 6 5 4 11 -5 18 -31 28 -19 16 18 -15
48 -32 53 -64 18 -14 -16 -23 -22 -20 -13 6 17 -9 39 -26 39 -5 0 -7 -13 -4
-30z"/>
<path d="M2956 765 c-3 -8 -1 -15 3 -15 5 0 11 7 15 15 3 8 1 15 -3 15 -5 0
-11 -7 -15 -15z"/>
<path d="M3530 764 c0 -8 5 -12 10 -9 6 3 10 10 10 16 0 5 -4 9 -10 9 -5 0
-10 -7 -10 -16z"/>
<path d="M3590 770 c0 -5 7 -10 16 -10 8 0 12 5 9 10 -3 6 -10 10 -16 10 -5 0
-9 -4 -9 -10z"/>
<path d="M2760 759 c0 -5 5 -7 10 -4 6 3 10 8 10 11 0 2 -4 4 -10 4 -5 0 -10
-5 -10 -11z"/>
<path d="M120 750 c0 -5 5 -10 10 -10 6 0 10 5 10 10 0 6 -4 10 -10 10 -5 0
-10 -4 -10 -10z"/>
<path d="M3555 740 c-3 -5 -1 -10 4 -10 6 0 11 5 11 10 0 6 -2 10 -4 10 -3 0
-8 -4 -11 -10z"/>
<path d="M3610 740 c0 -5 5 -10 10 -10 6 0 10 5 10 10 0 6 -4 10 -10 10 -5 0
-10 -4 -10 -10z"/>
<path d="M270 700 c0 -5 5 -10 10 -10 6 0 10 5 10 10 0 6 -4 10 -10 10 -5 0
-10 -4 -10 -10z"/>
<path d="M3540 700 c0 -5 4 -10 9 -10 6 0 13 5 16 10 3 6 -1 10 -9 10 -9 0
-16 -4 -16 -10z"/>
<path d="M1320 659 c0 -11 5 -17 10 -14 6 3 10 13 10 21 0 8 -4 14 -10 14 -5
0 -10 -9 -10 -21z"/>
<path d="M2689 645 c-13 -14 -36 -27 -49 -30 -35 -7 -44 -20 -29 -43 13 -20
13 -20 40 -1 34 24 39 24 39 -1 0 -11 5 -20 10 -20 6 0 10 12 10 26 0 15 7 32
15 38 9 7 12 19 9 34 -8 28 -14 28 -45 -3z"/>
<path d="M460 640 c0 -5 5 -10 10 -10 6 0 10 5 10 10 0 6 -4 10 -10 10 -5 0
-10 -4 -10 -10z"/>
<path d="M170 630 c0 -5 5 -10 10 -10 6 0 10 5 10 10 0 6 -4 10 -10 10 -5 0
-10 -4 -10 -10z"/>
<path d="M740 611 c0 -6 5 -13 10 -16 6 -3 10 1 10 9 0 9 -4 16 -10 16 -5 0
-10 -4 -10 -9z"/>
<path d="M1285 586 c-32 -42 -32 -56 0 -26 15 14 25 18 25 11 0 -8 6 -11 17
-7 13 6 12 1 -5 -17 -23 -24 -23 -24 -3 -30 11 -3 25 1 32 9 15 18 33 18 49
-1 15 -18 56 -16 53 3 -2 6 2 12 8 12 5 0 7 5 4 10 -4 6 -1 17 5 25 7 9 9 22
5 32 -7 16 -9 15 -14 -6 -10 -36 -36 -49 -58 -29 -10 9 -35 23 -55 31 l-38 16
-25 -33z"/>
<path d="M150 600 c0 -5 5 -10 10 -10 6 0 10 5 10 10 0 6 -4 10 -10 10 -5 0
-10 -4 -10 -10z"/>
<path d="M2564 599 c-3 -6 -1 -16 5 -22 8 -8 11 -5 11 11 0 24 -5 28 -16 11z"/>
<path d="M235 580 c-7 -12 2 -30 16 -30 12 0 12 27 0 35 -5 3 -12 1 -16 -5z"/>
<path d="M2513 560 c-25 -12 -31 -19 -26 -35 8 -28 13 -31 23 -15 9 14 11 13
14 -10 0 -5 4 -10 9 -10 4 0 11 0 16 0 13 0 19 56 7 71 -9 12 -16 12 -43 -1z"/>
<path d="M825 560 c-4 -6 -3 -16 3 -22 6 -6 12 -6 17 2 4 6 3 16 -3 22 -6 6
-12 6 -17 -2z"/>
<path d="M762 546 c7 -8 15 -12 17 -11 5 6 -10 25 -20 25 -5 0 -4 -6 3 -14z"/>
<path d="M1500 531 c0 -5 -3 -17 -7 -27 -4 -11 -3 -15 4 -11 15 10 24 -18 10
-32 -7 -7 -7 -14 -1 -20 13 -14 75 44 68 64 -6 16 -29 21 -37 8 -2 -5 -2 -3
-1 4 2 6 -4 14 -12 17 -21 8 -24 8 -24 -3z"/>
<path d="M2411 519 c-25 -11 -67 -23 -94 -27 -39 -5 -52 -12 -58 -30 -8 -21
-6 -22 31 -17 35 4 40 2 40 -15 0 -11 5 -20 10 -20 6 0 10 11 10 24 0 13 7 26
15 30 18 6 20 -5 3 -22 -17 -17 -1 -27 18 -12 9 8 14 23 11 37 -4 24 8 33 16
11 3 -10 7 -10 18 -1 8 6 19 12 24 12 6 0 11 12 13 26 4 29 1 30 -57 4z"/>
<path d="M1630 520 c-8 -5 -11 -12 -7 -16 4 -4 15 0 24 9 18 18 8 23 -17 7z"/>
<path d="M1980 495 c0 -26 -15 -35 -22 -13 -2 6 -10 8 -17 4 -9 -6 -9 -11 0
-22 9 -11 7 -14 -10 -14 -11 0 -21 -4 -21 -10 0 -5 12 -10 26 -10 14 0 23 -4
19 -10 -3 -5 -12 -7 -20 -4 -10 4 -12 0 -8 -15 5 -21 33 -30 33 -11 0 6 4 10
8 10 5 0 8 -9 8 -20 -1 -31 19 -28 22 3 3 23 6 26 18 16 19 -16 30 -4 14 16
-10 13 -9 15 8 15 12 0 24 5 27 10 4 6 -5 10 -21 10 -23 0 -25 2 -14 15 17 20
5 32 -15 15 -13 -11 -15 -9 -15 14 0 14 -4 26 -10 26 -5 0 -10 -11 -10 -25z"/>
<path d="M893 503 c-20 -8 -15 -33 6 -33 19 0 35 23 24 34 -7 7 -13 7 -30 -1z"/>
<path d="M1830 474 c-20 -31 -21 -39 -10 -60 15 -27 25 -30 37 -11 4 8 15 16
24 19 9 4 19 16 22 28 5 19 2 21 -19 17 -23 -4 -25 -2 -20 19 9 35 -9 29 -34
-12z"/>
<path d="M3120 500 c0 -5 5 -10 10 -10 6 0 10 5 10 10 0 6 -4 10 -10 10 -5 0
-10 -4 -10 -10z"/>
<path d="M1652 480 c-7 -11 -9 -21 -5 -21 5 -1 23 -3 42 -5 44 -5 48 -10 28
-32 -19 -21 -22 -32 -7 -32 6 0 19 14 29 31 12 20 21 26 24 17 4 -10 8 -10 22
4 10 9 15 21 11 26 -7 12 -76 21 -76 9 0 -4 -10 -1 -22 7 -29 20 -31 20 -46
-4z"/>
<path d="M2147 473 c-6 -17 -14 -20 -37 -16 -17 2 -30 0 -30 -6 0 -5 -3 -17
-7 -26 -5 -14 -2 -16 15 -10 20 6 22 3 22 -27 l1 -33 19 24 c11 13 20 29 20
36 0 7 4 15 8 17 4 2 5 17 2 33 -6 28 -7 28 -13 8z"/>
<path d="M1010 460 c0 -5 5 -10 10 -10 6 0 10 5 10 10 0 6 -4 10 -10 10 -5 0
-10 -4 -10 -10z"/>
<path d="M2185 449 c-7 -22 5 -42 12 -21 4 10 8 9 17 -4 11 -15 13 -13 14 15
0 24 -4 31 -18 31 -10 0 -22 -9 -25 -21z"/>
<path d="M3065 460 c3 -5 8 -10 11 -10 2 0 4 5 4 10 0 6 -5 10 -11 10 -5 0 -7
-4 -4 -10z"/>
<path d="M812 446 c1 -10 8 -17 13 -17 15 1 12 24 -3 29 -9 3 -13 -2 -10 -12z"/>
<path d="M470 440 c0 -5 7 -10 15 -10 8 0 15 5 15 10 0 6 -7 10 -15 10 -8 0
-15 -4 -15 -10z"/>
<path d="M3270 431 c0 -6 5 -13 10 -16 6 -3 10 1 10 9 0 9 -4 16 -10 16 -5 0
-10 -4 -10 -9z"/>
<path d="M1016 349 c-6 -32 -1 -49 15 -49 5 0 9 18 9 40 0 47 -15 53 -24 9z"/>
<path d="M3116 312 c-3 -6 -1 -14 5 -17 15 -10 25 3 12 16 -7 7 -13 7 -17 1z"/>
<path d="M3270 310 c0 -5 5 -10 10 -10 6 0 10 5 10 10 0 6 -4 10 -10 10 -5 0
-10 -4 -10 -10z"/>
<path d="M595 280 c-17 -19 -17 -20 -1 -20 23 0 56 18 56 30 0 17 -36 11 -55
-10z"/>
<path d="M492 244 c-26 -18 -30 -65 -7 -84 21 -17 63 11 71 48 3 15 7 33 10
40 5 18 -47 15 -74 -4z"/>
<path d="M1390 250 c0 -5 5 -10 10 -10 6 0 10 5 10 10 0 6 -4 10 -10 10 -5 0
-10 -4 -10 -10z"/>
<path d="M1810 195 c0 -8 5 -15 10 -15 6 0 10 7 10 15 0 8 -4 15 -10 15 -5 0
-10 -7 -10 -15z"/>
<path d="M1610 185 c0 -8 5 -15 10 -15 6 0 10 7 10 15 0 8 -4 15 -10 15 -5 0
-10 -7 -10 -15z"/>
<path d="M2640 175 c0 -8 5 -15 10 -15 6 0 10 7 10 15 0 8 -4 15 -10 15 -5 0
-10 -7 -10 -15z"/>
<path d="M2175 140 c-4 -6 -3 -24 0 -42 5 -22 9 -27 16 -17 12 18 11 56 0 64
-5 3 -13 1 -16 -5z"/>
<path d="M1177 23 c-12 -11 -8 -23 8 -23 8 0 15 7 15 15 0 16 -12 20 -23 8z"/>
</g>
</svg>
